<svg id="Layer_1" data-name="Layer 1" xmlns="http://www.w3.org/2000/svg" viewBox="0 0 24 24"><title>Blur Linear</title><path d="M16,7a.5.5,0,1,1,.5.5A.5.5,0,0,1,16,7ZM13,8a1,1,0,1,0-1-1A1,1,0,0,0,13,8Zm8,14H3V2H21ZM19,4H5V20H19Zm-2.5,8.5A.5.5,0,1,0,16,12,.5.5,0,0,0,16.5,12.5ZM13,13a1,1,0,1,0-1-1A1,1,0,0,0,13,13Zm-4.5.5A1.5,1.5,0,1,0,7,12,1.5,1.5,0,0,0,8.5,13.5Zm0,5A1.5,1.5,0,1,0,7,17,1.5,1.5,0,0,0,8.5,18.5Zm0-10A1.5,1.5,0,1,0,7,7,1.5,1.5,0,0,0,8.5,8.5Zm8,9A.5.5,0,1,0,16,17,.5.5,0,0,0,16.5,17.5ZM13,18a1,1,0,1,0-1-1A1,1,0,0,0,13,18Z"/></svg>