<svg id="Layer_1" data-name="Layer 1" xmlns="http://www.w3.org/2000/svg" viewBox="0 0 24 24"><title>Camera Diaphragm</title><path d="M2.84,16H12L8.81,21.47A10.08,10.08,0,0,1,2.84,16Zm12.62-6L20,18A9.94,9.94,0,0,0,22,12a10.2,10.2,0,0,0-.2-2Zm0,4-4.6,7.92A10.92,10.92,0,0,0,12,22a9.92,9.92,0,0,0,6.6-2.51ZM2,12a10.2,10.2,0,0,0,.2,2H8.54L4,6.05A9.94,9.94,0,0,0,2,12ZM12,2A9.92,9.92,0,0,0,5.4,4.51L8.54,10l4.55-7.92A9.82,9.82,0,0,0,12,2Zm3.14.51L12,8h9.17A10.05,10.05,0,0,0,15.14,2.51ZM13.15,14l1.15-2-1.15-2H10.84L9.69,12l1.16,2Z"/></svg>