<svg id="Layer_1" data-name="Layer 1" xmlns="http://www.w3.org/2000/svg" viewBox="0 0 24 24"><title>Color Lens</title><path d="M3.73,17.88A8.7,8.7,0,0,0,11.2,22h.32l.85,0a1.33,1.33,0,0,0,1.15-.73,1.37,1.37,0,0,0-.09-1.37A2.43,2.43,0,0,1,13,18a2.54,2.54,0,0,1,1.85-2,2.58,2.58,0,0,1,1.46.08,4.41,4.41,0,0,0,3.85-.38A3.8,3.8,0,0,0,22,12.84a10.74,10.74,0,0,0-1.3-6A8.84,8.84,0,0,0,16.57,3a10.18,10.18,0,0,0-12,2.34C1.5,8.75,1.19,13.67,3.73,17.88ZM17,9a1,1,0,1,1-1,1A1,1,0,0,1,17,9ZM14,6a1,1,0,1,1-1,1A1,1,0,0,1,14,6ZM10,6A1,1,0,1,1,9,7,1,1,0,0,1,10,6ZM7,9a1,1,0,1,1-1,1A1,1,0,0,1,7,9Z"/></svg>