<svg id="Layer_1" data-name="Layer 1" xmlns="http://www.w3.org/2000/svg" viewBox="0 0 24 24"><title>Forward 30</title><path d="M16,6,12,9V7a6,6,0,1,0,6,6h2a8,8,0,1,1-8-8V3ZM9.76,14.32a.57.57,0,0,1-.63-.59H8c0,.93.59,1.48,1.79,1.48s1.74-.53,1.74-1.35a1,1,0,0,0-.84-1,.91.91,0,0,0,.73-.92c0-.72-.61-1.18-1.61-1.18a1.49,1.49,0,0,0-1.69,1.43H9.25a.53.53,0,0,1,.57-.55c.33,0,.49.17.49.43s-.19.47-.57.47H9.42v.76h.34q.57,0,.57.51C10.33,14.14,10.15,14.32,9.76,14.32ZM14,10.79a1.88,1.88,0,0,1,2,2.09v.17a1.93,1.93,0,0,1-2,2.16,1.88,1.88,0,0,1-2-2.12v-.18A1.92,1.92,0,0,1,14,10.79Zm0,.93c-.52,0-.75.38-.75,1.18v.18c0,.8.23,1.18.76,1.18s.74-.39.74-1.19V12.9C14.73,12.11,14.51,11.72,14,11.72Z"/></svg>