<svg id="Layer_1" data-name="Layer 1" xmlns="http://www.w3.org/2000/svg" viewBox="0 0 24 24"><title>Image Search</title><path d="M20,16a4,4,0,0,0-3-3.87A3.66,3.66,0,0,0,16,12a4,4,0,0,0-4,4,3.66,3.66,0,0,0,.13,1A4,4,0,0,0,16,20a3.89,3.89,0,0,0,2-.57L20.59,22,22,20.59,19.43,18A4,4,0,0,0,20,16Zm-4,2a2,2,0,1,1,2-2A2,2,0,0,1,16,18Zm-5.91-1A5.55,5.55,0,0,1,10,16a6,6,0,0,1,.35-2H5l3-4,2.14,2.86L12,11l.29.29A5.94,5.94,0,0,1,16,10a5.55,5.55,0,0,1,1,.09,4.9,4.9,0,0,1,1,.26V2H2V18h8.35A4.9,4.9,0,0,1,10.09,17ZM13,6a1,1,0,1,1-1,1A1,1,0,0,1,13,6Z"/></svg>