<svg id="Layer_1" data-name="Layer 1" xmlns="http://www.w3.org/2000/svg" viewBox="0 0 24 24"><title>Layer Mask</title><path d="M2,22H22V2H2Zm5.78-5.74a5.85,5.85,0,0,1-1.31-1.93l1.84-.78a4,4,0,0,0,.87,1.29Zm6.53,1.28-.77-1.85a4,4,0,0,0,1.29-.86l1.42,1.41A5.91,5.91,0,0,1,14.31,17.54ZM18,12a6,6,0,0,1-.45,2.29l-1.85-.76A4,4,0,0,0,16,12l2-.06ZM16.2,7.71a6.2,6.2,0,0,1,1.32,1.93l-1.84.79a4,4,0,0,0-.88-1.29ZM12,6a6.07,6.07,0,0,1,2.24.43L13.5,8.29A4,4,0,0,0,12,8l0-2Zm0,10v2h0a5.94,5.94,0,0,1-2.28-.45l.76-1.85A3.92,3.92,0,0,0,12,16ZM9.66,6.47l.78,1.84a4.05,4.05,0,0,0-1.29.88L7.73,7.79A5.82,5.82,0,0,1,9.66,6.47ZM6,12a6,6,0,0,1,.44-2.26l1.85.75A4.1,4.1,0,0,0,8,12L6,12Z"/></svg>