<svg id="Layer_1" data-name="Layer 1" xmlns="http://www.w3.org/2000/svg" viewBox="0 0 24 24"><title>Replay 30</title><path d="M12,19A6,6,0,0,0,12,7V9L8,6l4-3V5a8,8,0,1,1-8,8H6A6,6,0,0,0,12,19ZM9.76,14.32a.57.57,0,0,1-.63-.59H8c0,.93.59,1.48,1.79,1.48s1.74-.53,1.74-1.35a1,1,0,0,0-.84-1,.91.91,0,0,0,.73-.92c0-.72-.61-1.18-1.61-1.18a1.49,1.49,0,0,0-1.69,1.43H9.25a.53.53,0,0,1,.57-.55c.33,0,.49.17.49.43s-.19.47-.57.47H9.42v.76h.34q.57,0,.57.51C10.33,14.14,10.15,14.32,9.76,14.32Zm4.2.89a1.88,1.88,0,0,1-2-2.12v-.18a1.92,1.92,0,0,1,2-2.12,1.88,1.88,0,0,1,2,2.09v.17A1.93,1.93,0,0,1,14,15.21Zm0-1c.53,0,.74-.39.74-1.19V12.9c0-.79-.22-1.18-.75-1.18s-.75.38-.75,1.18v.18C13.23,13.88,13.46,14.26,14,14.26Z"/></svg>