<svg id="Layer_1" data-name="Layer 1" xmlns="http://www.w3.org/2000/svg" viewBox="0 0 24 24"><title>Slow Motion</title><path d="M4.3,7.28A6,6,0,0,1,6.78,6.12a6,6,0,0,1,2-.06,6.75,6.75,0,0,0,0,11.88,2.58,2.58,0,0,1-.39,0A2.61,2.61,0,0,1,8,18,6,6,0,0,1,4.3,7.28ZM11.68,6A6,6,0,0,0,6,12c0,.15,0,.3,0,.44a6.07,6.07,0,0,0,.84,2.65,6,6,0,0,0,1.93,2A6.06,6.06,0,0,0,12,18a5.29,5.29,0,0,0,.8-.06,6.43,6.43,0,0,1-1.66-1.27,6.11,6.11,0,0,1-.75-.93,6.7,6.7,0,0,1,0-7.48,6.11,6.11,0,0,1,.75-.93A6.43,6.43,0,0,1,12.8,6.06,5.29,5.29,0,0,0,12,6ZM16,6a6,6,0,1,0,6,6A6,6,0,0,0,16,6Z"/></svg>