<svg id="Layer_1" data-name="Layer 1" xmlns="http://www.w3.org/2000/svg" viewBox="0 0 24 24"><title>Timelapse</title><path d="M13,2.05V6.1h0A6,6,0,0,1,15.26,7L14.18,8.65A4.34,4.34,0,0,0,13,8.16v4.25l-3,3a4.05,4.05,0,0,0,1.13.48l-.45,2a6,6,0,0,1-2.14-1L5.67,19.74A10,10,0,1,0,13,2.05Zm0,15.88-.34-2a4.11,4.11,0,0,0,1.48-.57l1.08,1.68A6.08,6.08,0,0,1,13,17.93ZM17,8.63a6,6,0,0,1,.92,2.2l-2,.39a4.11,4.11,0,0,0-.62-1.46Zm0,6.78-1.65-1.13a4.15,4.15,0,0,0,.62-1.47l2,.4A6,6,0,0,1,17,15.41ZM4.26,18.33A10,10,0,0,1,11,2.05v9.54Z"/></svg>