<svg id="Layer_1" data-name="Layer 1" xmlns="http://www.w3.org/2000/svg" viewBox="0 0 24 24"><title>Accessible Forward</title><path d="M10.4,10.8l2.76-3.69-1.94-1L8.71,8.7,7.29,7.3l3.54-3.59,5,2.46.15.08,0,0h0l.21.13a2,2,0,0,1,.4,2.8L14.5,12H18v8H16V14H14a4.91,4.91,0,0,1,.64,1.14,5.31,5.31,0,0,1,.26.86,4.71,4.71,0,0,1,.1,1,5.09,5.09,0,0,1-.82,2.76L12.7,18.28A2.77,2.77,0,0,0,13,17a2.67,2.67,0,0,0-.19-1A3,3,0,0,0,11,14.18,2.87,2.87,0,0,0,10,14a2.77,2.77,0,0,0-1.28.3L7.24,12.82A5.09,5.09,0,0,1,10,12h0A2,2,0,0,1,10.4,10.8ZM17,6a2,2,0,1,0-2-2A2,2,0,0,0,17,6ZM10,22a5.09,5.09,0,0,0,2.76-.82L11.28,19.7A2.77,2.77,0,0,1,10,20a3,3,0,0,1-3-3,2.77,2.77,0,0,1,.3-1.28L5.82,14.24A5.09,5.09,0,0,0,5,17,5,5,0,0,0,10,22Z"/></svg>