<svg id="Layer_1" data-name="Layer 1" xmlns="http://www.w3.org/2000/svg" viewBox="0 0 24 24"><title>Alarm Add</title><path d="M3.41,8,2,6.59,6.59,2,8,3.41ZM16,3.41,20.59,8,22,6.59,17.41,2Zm1.92,3.21A8,8,0,0,1,20,12a7.73,7.73,0,0,1-.06,1c0,.16,0,.31-.07.47a7.45,7.45,0,0,1-.39,1.4l-.15.37c-.06.15-.13.28-.2.42a3.11,3.11,0,0,1-.22.4c-.07.13-.15.25-.23.37a6.78,6.78,0,0,1-.88,1.12l-.3.29a6.64,6.64,0,0,1-.71.58L19,20.59,17.59,22,15,19.41a7.24,7.24,0,0,1-1.46.44,6.32,6.32,0,0,1-.76.11,7.63,7.63,0,0,1-1.56,0,6.32,6.32,0,0,1-.76-.11A7.24,7.24,0,0,1,9,19.41L6.41,22,5,20.59l2.21-2.21a6.64,6.64,0,0,1-.71-.58l-.3-.29a6.78,6.78,0,0,1-.88-1.12c-.08-.12-.16-.24-.23-.37a3.11,3.11,0,0,1-.22-.4c-.07-.14-.14-.27-.2-.42l-.15-.37a7.45,7.45,0,0,1-.39-1.4c0-.16,0-.31-.07-.47A7.73,7.73,0,0,1,4,12,8,8,0,0,1,6.08,6.62c.18-.19.35-.36.54-.54a8,8,0,0,1,10.76,0A6.88,6.88,0,0,1,17.92,6.62ZM15,13V11H13V9H11v2H9v2h2v2h2V13Z"/></svg>