<svg id="Layer_1" data-name="Layer 1" xmlns="http://www.w3.org/2000/svg" viewBox="0 0 24 24"><title>All Out</title><path d="M13.54,6.21a5.75,5.75,0,0,0-3.08,0L8.88,4.63a8,8,0,0,1,6.24,0ZM4.63,8.89A7.89,7.89,0,0,0,4,12a8.12,8.12,0,0,0,.63,3.12l1.58-1.58a5.75,5.75,0,0,1,0-3.08ZM12,18a5.61,5.61,0,0,1-1.54-.21L8.89,19.37a8,8,0,0,0,6.22,0l-1.57-1.58A5.61,5.61,0,0,1,12,18Zm7.37-2.88A8.12,8.12,0,0,0,20,12a7.89,7.89,0,0,0-.63-3.11l-1.58,1.57a5.75,5.75,0,0,1,0,3.08Zm-4.66-1.83-1.42,1.42,5.5,5.5L17,22h5V17l-1.79,1.79Zm-9.5,6.92,5.5-5.5L9.29,13.29l-5.5,5.5L2,17v5H7ZM18.79,3.79l-5.5,5.5,1.42,1.42,5.5-5.5L22,7V2H17Zm-9.5,6.92,1.42-1.42-5.5-5.5L7,2H2V7L3.79,5.21Z"/></svg>