<svg id="Layer_1" data-name="Layer 1" xmlns="http://www.w3.org/2000/svg" viewBox="0 0 24 24"><title>Birthday</title><path d="M11,5a6.64,6.64,0,0,1,1-2,6.64,6.64,0,0,1,1,2,1,1,0,0,1-2,0ZM7,6A1,1,0,0,0,8,5,6.64,6.64,0,0,0,7,3,6.64,6.64,0,0,0,6,5,1,1,0,0,0,7,6ZM17,6a1,1,0,0,0,1-1,6.64,6.64,0,0,0-1-2,6.64,6.64,0,0,0-1,2A1,1,0,0,0,17,6Zm-1.36,9a6.21,6.21,0,0,1-7.28,0A5.9,5.9,0,0,1,2,15.59V21H22V15.58A5.79,5.79,0,0,1,15.64,15ZM18,7H16v3H13V7H11v3H8V7H6v3H2v3.18a3.89,3.89,0,0,0,5.42-.07l.91-.92L9,12.9a4.19,4.19,0,0,0,5.92,0l.71-.71.91.92a3.89,3.89,0,0,0,5.42.07V10H18Z"/></svg>