<svg id="Layer_1" data-name="Layer 1" xmlns="http://www.w3.org/2000/svg" viewBox="0 0 24 24"><title>Bug</title><path d="M18.37,8.1l-1.91.68A5.06,5.06,0,0,0,15.21,7.2L17,5.41,15.59,4,13.37,6.22A4.79,4.79,0,0,0,12,6a4.79,4.79,0,0,0-1.37.22L8.41,4,7,5.41,8.79,7.2A5,5,0,0,0,7.56,8.75L5.63,8,5,9.9l2,.79c0,.11,0,.2,0,.31v1H5v2H7v1c0,.11,0,.2,0,.31L5,16.1,5.63,18l1.93-.75a5,5,0,0,0,8.9,0l1.91.68L19,16l-2-.72A2.4,2.4,0,0,0,17,15V14h2V12H17V11a2.4,2.4,0,0,0,0-.28L19,10ZM14.22,9H9.78a3,3,0,0,1,4.44,0ZM9,15V11h2v6.82A3,3,0,0,1,9,15Zm6,0a3,3,0,0,1-2,2.82V11h2Z"/></svg>