<svg id="Layer_1" data-name="Layer 1" xmlns="http://www.w3.org/2000/svg" viewBox="0 0 24 24"><title>Fingerprint</title><path d="M19.68,14.15a3.06,3.06,0,1,1-6.12,0,1.56,1.56,0,1,0-3.12,0,6.16,6.16,0,0,0,4.73,6,.74.74,0,0,1,.56.9.76.76,0,0,1-.73.58.47.47,0,0,1-.17,0,7.65,7.65,0,0,1-5.89-7.46,3.06,3.06,0,1,1,6.12,0,1.56,1.56,0,0,0,3.12,0,6.18,6.18,0,1,0-12.36,0,10.91,10.91,0,0,0,.79,4.06.75.75,0,0,1-.41,1,.72.72,0,0,1-.28,0,.74.74,0,0,1-.7-.47,12.26,12.26,0,0,1-.9-4.62,7.68,7.68,0,1,1,15.36,0Zm-1.75,3.64a3.88,3.88,0,0,1-5.18-3.64.75.75,0,1,0-1.5,0,5.36,5.36,0,0,0,7.19,5,.75.75,0,0,0-.51-1.41ZM12,10.27a3.88,3.88,0,0,1,3.87,3.88.75.75,0,0,0,1.5,0,5.37,5.37,0,0,0-10.74,0s0,0,0,0A9.8,9.8,0,0,0,7.8,18.84,9.7,9.7,0,0,0,10.46,22a.79.79,0,0,0,.46.15.75.75,0,0,0,.46-1.34,8.21,8.21,0,0,1-2.25-2.68,8.34,8.34,0,0,1-1-4h0A3.88,3.88,0,0,1,12,10.27ZM19.73,7.8a10,10,0,0,0-15.46,0,.75.75,0,1,0,1.16,1,8.5,8.5,0,0,1,13.14,0,.74.74,0,0,0,.58.27.78.78,0,0,0,.48-.17A.76.76,0,0,0,19.73,7.8Zm.26-3a12.3,12.3,0,0,0-16,0A.75.75,0,1,0,5,5.93a10.78,10.78,0,0,1,14,0,.78.78,0,0,0,.49.18A.75.75,0,0,0,20,4.79Z"/></svg>