<svg id="Layer_1" data-name="Layer 1" xmlns="http://www.w3.org/2000/svg" viewBox="0 0 24 24"><title>G Translate</title><path d="M10.78,10.64v.7A2.48,2.48,0,0,1,8,13.88,2.74,2.74,0,0,1,5,11v-.06A2.85,2.85,0,0,1,8,8c1.3,0,2.49.58,2.64,2H9a.91.91,0,0,0-1-.71c-.81,0-1.3.62-1.3,1.65V11c0,.92.35,1.64,1.34,1.64.78,0,1.1-.42,1.13-.87H8.1V10.64ZM12.6,6H22V21H12l-.75-3H2V3H12Zm1.84,9.18.25-.13a4.45,4.45,0,0,1-.38-.48Zm1.06-.74a3.46,3.46,0,0,0,1-2.44H13.8L14,13l.6-.15A3.47,3.47,0,0,0,15.5,14.44ZM10.75,16h1.69l-2-11H4V16ZM13,8l.6,3H15V10h1v1h3v1H17.5a4.49,4.49,0,0,1-1.21,3.05A3.44,3.44,0,0,0,18,15.5v1a4.5,4.5,0,0,1-2.49-.77,4.22,4.22,0,0,1-.87.45L15,18l-1,1h6V8Z"/></svg>