<svg id="Layer_1" data-name="Layer 1" xmlns="http://www.w3.org/2000/svg" viewBox="0 0 24 24"><title>In Progress</title><path d="M22,12A10,10,0,0,1,12,22a10.2,10.2,0,0,1-2.75-.38l.55-1.93A7.75,7.75,0,0,0,12,20,8,8,0,0,0,12,4a7.75,7.75,0,0,0-2.2.31L9.25,2.38A10.2,10.2,0,0,1,12,2,10,10,0,0,1,22,12ZM3.25,7.16,5,8.13A8,8,0,0,1,8.14,5l-1-1.75A10,10,0,0,0,3.25,7.16ZM5,15.88l-1.75,1a10.05,10.05,0,0,0,3.93,3.91l1-1.75A8,8,0,0,1,5,15.88ZM2,12a10,10,0,0,0,.39,2.78l1.92-.56A8.26,8.26,0,0,1,4,12a7.94,7.94,0,0,1,.31-2.22L2.39,9.23A10,10,0,0,0,2,12ZM17.71,8.85,16.29,7.44,10,13.73,7.71,11.44,6.29,12.85,10,16.56Z"/></svg>