<svg id="Layer_1" data-name="Layer 1" xmlns="http://www.w3.org/2000/svg" viewBox="0 0 24 24"><title>Language</title><path d="M12,19.39A12.4,12.4,0,0,1,10.26,16h3.48A12.4,12.4,0,0,1,12,19.39ZM9.59,12a13.4,13.4,0,0,0,.16,2h4.5a12.71,12.71,0,0,0,0-4H9.75A13.4,13.4,0,0,0,9.59,12ZM21.8,10H16.53a14.86,14.86,0,0,1,.15,2,14.86,14.86,0,0,1-.15,2H21.8a10.2,10.2,0,0,0,0-4ZM7.47,14a14.86,14.86,0,0,1-.15-2,14.86,14.86,0,0,1,.15-2H2.2a10.2,10.2,0,0,0,0,4ZM12.81,2c.25.28.5.57.72.87A14.85,14.85,0,0,1,16.11,8h5.05A10,10,0,0,0,12.81,2Zm8.35,14H16.11a14.85,14.85,0,0,1-2.58,5.11c-.22.3-.47.59-.72.87A10,10,0,0,0,21.16,16Zm-10,6c-.25-.28-.5-.57-.72-.87A14.85,14.85,0,0,1,7.89,16h-5A10,10,0,0,0,11.19,22ZM7.89,8a14.85,14.85,0,0,1,2.58-5.11c.22-.3.47-.59.72-.87A10,10,0,0,0,2.84,8Zm2.37,0h3.48A12.4,12.4,0,0,0,12,4.61,12.4,12.4,0,0,0,10.26,8Z"/></svg>