<svg id="Layer_1" data-name="Layer 1" xmlns="http://www.w3.org/2000/svg" viewBox="0 0 24 24"><title>Pets</title><path d="M15,6a2,2,0,1,1,2-2A2,2,0,0,1,15,6ZM11,4A2,2,0,1,0,9,6,2,2,0,0,0,11,4Zm9,2a2,2,0,1,0,2,2A2,2,0,0,0,20,6ZM4,10A2,2,0,1,0,2,8,2,2,0,0,0,4,10Zm17.23,5.63-.13-.11a20.81,20.81,0,0,1-3.34-3.16,21.59,21.59,0,0,1-2.39-3.52l-.28-.38a4,4,0,0,0-6.19,0l-.27.37a21.59,21.59,0,0,1-2.39,3.52A20.81,20.81,0,0,1,2.9,15.52l-.13.11-.1.14a4.17,4.17,0,0,0-.62,1.62A4.07,4.07,0,0,0,2,18a4,4,0,0,0,4,4h.17L6.32,22a17.54,17.54,0,0,1,11.36,0l.15.05H18a4,4,0,0,0,2.83-1.17A4,4,0,0,0,22,18a3.93,3.93,0,0,0-.68-2.23Z"/></svg>