<svg id="Layer_1" data-name="Layer 1" xmlns="http://www.w3.org/2000/svg" viewBox="0 0 24 24"><title>Record Voice Over</title><path d="M10,13a3,3,0,1,1,3-3A3,3,0,0,1,10,13ZM3.06,18.65,3,18.82V21H17V18.82l-.06-.17A7.35,7.35,0,0,0,10,14,7.35,7.35,0,0,0,3.06,18.65Zm11.63-6,1.15,1.15a6.94,6.94,0,0,0,0-7.68l-.3.3L15,7l-.61.61a5,5,0,0,1,0,4.78ZM20,5.43a10.42,10.42,0,0,0-1-1.75l-.29-.39L17.28,4.72a9,9,0,0,1,0,10.56l.56.56.1.1.42.42.35.35.29-.39a10.42,10.42,0,0,0,1-1.75,10.94,10.94,0,0,0,0-9.14Z"/></svg>