<svg id="Layer_1" data-name="Layer 1" xmlns="http://www.w3.org/2000/svg" viewBox="0 0 24 24"><title>Settings Phone</title><path d="M20.2,10.7,21,9.32l-.73-.65A2.93,2.93,0,0,0,20.34,8a3.08,3.08,0,0,0-.07-.68L21,6.68l-.8-1.39-.92.32A3.23,3.23,0,0,0,18.13,5l-.19-1h-1.6l-.19,1A3.23,3.23,0,0,0,15,5.61l-.93-.31-.8,1.38.74.65A2.46,2.46,0,0,0,14,8a2.58,2.58,0,0,0,.07.68l-.73.64.8,1.39.92-.32a3.32,3.32,0,0,0,1.14.65l.19,1h1.6l.19-1a3.23,3.23,0,0,0,1.14-.65ZM17.14,9.33A1.33,1.33,0,1,1,18.47,8,1.34,1.34,0,0,1,17.14,9.33ZM10,7.5,5.57,10.83l0,.17h0a13,13,0,0,0,5.16,6.81l2.91-2.92L19,16.22V22H18a14.79,14.79,0,0,1-6.43-1.45A15,15,0,0,1,3.15,9.14,15.61,15.61,0,0,1,3,7a15.09,15.09,0,0,1,.62-4.29L3.83,2H10Z"/></svg>