<svg id="Layer_1" data-name="Layer 1" xmlns="http://www.w3.org/2000/svg" viewBox="0 0 24 24"><title>Settings Button</title><path d="M14,12a2,2,0,1,1-2-2A2,2,0,0,1,14,12Zm7.64-3.32L19.82,10.3A8,8,0,0,1,20,12a7.72,7.72,0,0,1-.18,1.68l1.83,1.61-2,3.46L17.33,18a8,8,0,0,1-2.85,1.65L14,22H10l-.48-2.39A8,8,0,0,1,6.68,18l-2.31.8-2-3.45L4.18,13.7A8,8,0,0,1,4,12a7.72,7.72,0,0,1,.18-1.68L2.35,8.71l2-3.46L6.67,6A8,8,0,0,1,9.52,4.39L10,2h4l.48,2.39A8,8,0,0,1,17.32,6l2.31-.8ZM16,12a4,4,0,1,0-4,4A4,4,0,0,0,16,12Z"/></svg>