<svg id="Layer_1" data-name="Layer 1" xmlns="http://www.w3.org/2000/svg" viewBox="0 0 24 24"><title>Supervised User Circle</title><path d="M12,2A10,10,0,0,0,2,12a9.85,9.85,0,0,0,1.33,5,9.43,9.43,0,0,0,1.2,1.67,10,10,0,0,0,5.76,3.21,8.16,8.16,0,0,0,1.12.13L12,22h.53a9.82,9.82,0,0,0,1.09-.12,10,10,0,0,0,5.3-2.66,9.33,9.33,0,0,0,.75-.79c.23-.29.46-.59.67-.9a10.21,10.21,0,0,0,.56-1,8.67,8.67,0,0,0,.46-1A9.76,9.76,0,0,0,22,12,10,10,0,0,0,12,2Zm7.72,12.08a7.91,7.91,0,0,1-.33,1A6,6,0,0,0,16,14a6.2,6.2,0,0,0-2.69.64,5.89,5.89,0,0,0-1.18.78,5.59,5.59,0,0,0-.73.73A5.88,5.88,0,0,0,10,19.75a8.24,8.24,0,0,1-4-2.48,6.26,6.26,0,0,1-.45-.57A3.87,3.87,0,0,1,6,16.35a7,7,0,0,1,3.7-1.26c.05-.08.12-.15.18-.23a7.75,7.75,0,0,1,1-1,8,8,0,0,1,.85-.62,8.93,8.93,0,0,0-6.85,1.44l-.31.22A7.62,7.62,0,0,1,4,12a8,8,0,0,1,16,0A7.91,7.91,0,0,1,19.72,14.08ZM10,6a3,3,0,1,0,3,3A3,3,0,0,0,10,6Zm0,4a1,1,0,1,1,1-1A1,1,0,0,1,10,10Zm8,1a2,2,0,1,1-2-2A2,2,0,0,1,18,11Z"/></svg>