<svg id="Layer_1" data-name="Layer 1" xmlns="http://www.w3.org/2000/svg" viewBox="0 0 24 24"><title>Supervisor Account</title><path d="M6,8A3,3,0,1,0,9,5,3,3,0,0,0,6,8Zm4,0A1,1,0,1,1,9,7,1,1,0,0,1,10,8ZM8,19H2V16.82l.06-.17A7.35,7.35,0,0,1,9,12a7.58,7.58,0,0,1,3.39.79,7.92,7.92,0,0,0-2.09,1.36A5.57,5.57,0,0,0,9,14a5.38,5.38,0,0,0-4.92,3H8.25c-.05.1-.09.21-.13.31L8,17.64ZM16,9a2,2,0,1,1-2,2A2,2,0,0,1,16,9Zm6,9v1H10V18a5.45,5.45,0,0,1,.49-1,6.13,6.13,0,0,1,1.85-1.91,6.43,6.43,0,0,1,2-.88A6.5,6.5,0,0,1,22,18Z"/></svg>