<svg id="Layer_1" data-name="Layer 1" xmlns="http://www.w3.org/2000/svg" viewBox="0 0 24 24"><title>Translate</title><path d="M12,2A10,10,0,0,0,3.09,16.54L2,22l5.46-1.09A10,10,0,1,0,12,2Zm0,18a7.89,7.89,0,0,1-3.62-.87l-.63-.32L7.07,19l-2.52.5.5-2.52.14-.68-.32-.63A7.89,7.89,0,0,1,4,12a8,8,0,1,1,8,8ZM10,10.5h4.1a10.59,10.59,0,0,1,.12,1.5,10.59,10.59,0,0,1-.12,1.5H10A10.59,10.59,0,0,1,9.83,12,10.59,10.59,0,0,1,10,10.5Zm-1,3H5.68a6.34,6.34,0,0,1,0-3H8.94A12.31,12.31,0,0,0,8.83,12,12.31,12.31,0,0,0,8.94,13.5Zm4.91,1A9.28,9.28,0,0,1,12,18.23a9.28,9.28,0,0,1-1.85-3.73Zm1-5a10.4,10.4,0,0,0-1.74-3.89A6.5,6.5,0,0,1,18,9.5ZM18.5,12a6.69,6.69,0,0,1-.18,1.5H15.06a12.31,12.31,0,0,0,.11-1.5,12.31,12.31,0,0,0-.11-1.5h3.26A6.69,6.69,0,0,1,18.5,12ZM10.15,9.5A9.28,9.28,0,0,1,12,5.77,9.28,9.28,0,0,1,13.85,9.5Zm-1,5a10.4,10.4,0,0,0,1.74,3.89A6.5,6.5,0,0,1,6,14.5Zm5.76,0H18a6.5,6.5,0,0,1-4.86,3.89A10.4,10.4,0,0,0,14.88,14.5Zm-5.76-5H6a6.5,6.5,0,0,1,4.86-3.89A10.4,10.4,0,0,0,9.12,9.5Z"/></svg>