<svg id="Layer_1" data-name="Layer 1" xmlns="http://www.w3.org/2000/svg" viewBox="0 0 24 24"><title>User Group</title><path d="M6,9a3,3,0,1,1,3,3A3,3,0,0,1,6,9ZM2,20H16V18.41a3.8,3.8,0,0,0-.69-2.13A7.52,7.52,0,0,0,9,13a7.78,7.78,0,0,0-3.36.75,7.22,7.22,0,0,0-2.78,2.3,4.34,4.34,0,0,0-.81,1.62A14,14,0,0,0,2,20ZM13.92,9.79A2.81,2.81,0,0,0,15,10a3,3,0,1,0-2.54-4.59A5,5,0,0,1,14,9,5.06,5.06,0,0,1,13.92,9.79ZM22,16.41a3.73,3.73,0,0,0-.69-2.13A7.53,7.53,0,0,0,15,11a7.66,7.66,0,0,0-1.51.15,5,5,0,0,1-.45.74A9.15,9.15,0,0,1,17,15.19,5.74,5.74,0,0,1,18,18h4Z"/></svg>