<svg id="Layer_1" data-name="Layer 1" xmlns="http://www.w3.org/2000/svg" viewBox="0 0 24 24"><title>Visibility Off</title><path d="M22.08,11.6l.17.4-.17.4a11,11,0,0,1-2.6,3.66L16,12.54A3.27,3.27,0,0,0,16,12a4,4,0,0,0-4-4,3.27,3.27,0,0,0-.54,0L8.88,5.46A10.86,10.86,0,0,1,12,5,11,11,0,0,1,22.08,11.6ZM3.71,2.29l18,18-1.42,1.42L16.58,18A11,11,0,0,1,1.92,12.4L1.75,12l.17-.4A10.85,10.85,0,0,1,5.63,7.05L2.29,3.71ZM8,12a4,4,0,0,0,6,3.45l-1.52-1.52A2.16,2.16,0,0,1,12,14a2,2,0,0,1-2-2,2.16,2.16,0,0,1,.07-.51L8.55,10A4,4,0,0,0,8,12Z"/></svg>