<svg id="Layer_1" data-name="Layer 1" xmlns="http://www.w3.org/2000/svg" viewBox="0 0 24 24"><title>Voice Over Off</title><path d="M10.46,7A3,3,0,0,1,13,9.54Zm5.89,5.89a6.93,6.93,0,0,0-.51-6.77l-.3.3L15,7l-.61.61A4.93,4.93,0,0,1,15,10a4.85,4.85,0,0,1-.2,1.38Zm2.95,3a11.69,11.69,0,0,0,.7-1.31,10.94,10.94,0,0,0,0-9.14,10.42,10.42,0,0,0-1-1.75l-.29-.39L17.28,4.72A8.94,8.94,0,0,1,19,10a8.8,8.8,0,0,1-1.17,4.41ZM2.29,3.71l5,5a3,3,0,0,0,4,4l2.07,2.08A7.61,7.61,0,0,0,10,14a7.35,7.35,0,0,0-6.94,4.65L3,18.82V21H17V18.82l-.06-.17c-.07-.19-.17-.37-.26-.56l3.61,3.62,1.42-1.42-18-18Z"/></svg>