<svg id="Layer_1" data-name="Layer 1" xmlns="http://www.w3.org/2000/svg" viewBox="0 0 24 24"><title>Waves</title><path d="M20.21,8.62,22,10.29l-1.41,1.42L18.79,10a2.53,2.53,0,0,0-3.58,0,4.56,4.56,0,0,1-6.42,0,2.53,2.53,0,0,0-3.58,0l-1.8,1.67L2,10.29,3.79,8.62a4.54,4.54,0,0,1,6.42,0,2.53,2.53,0,0,0,3.58,0,4.54,4.54,0,0,1,6.42,0ZM17,2.29a4.51,4.51,0,0,0-3.21,1.33,2.53,2.53,0,0,1-3.58,0,4.54,4.54,0,0,0-6.42,0L2,5.29,3.41,6.71,5.21,5A2.53,2.53,0,0,1,8.79,5a4.56,4.56,0,0,0,6.42,0,2.53,2.53,0,0,1,3.58,0l1.8,1.67L22,5.29,20.21,3.62A4.51,4.51,0,0,0,17,2.29Zm0,10a4.51,4.51,0,0,0-3.21,1.33,2.53,2.53,0,0,1-3.58,0,4.54,4.54,0,0,0-6.42,0L2,15.29l1.41,1.42L5.21,15a2.53,2.53,0,0,1,3.58,0,4.56,4.56,0,0,0,6.42,0,2.53,2.53,0,0,1,3.58,0l1.8,1.67L22,15.29l-1.79-1.67A4.51,4.51,0,0,0,17,12.29Zm0,5a4.51,4.51,0,0,0-3.21,1.33,2.53,2.53,0,0,1-3.58,0,4.54,4.54,0,0,0-6.42,0L2,20.29l1.41,1.42L5.21,20a2.53,2.53,0,0,1,3.58,0,4.56,4.56,0,0,0,6.42,0,2.53,2.53,0,0,1,3.58,0l1.8,1.67L22,20.29l-1.79-1.67A4.51,4.51,0,0,0,17,17.29Z"/></svg>