<svg id="Layer_1" data-name="Layer 1" xmlns="http://www.w3.org/2000/svg" viewBox="0 0 24 24"><title>Network</title><path d="M12,2a10,10,0,0,0,0,20c.34,0,.67,0,1-.05v-2l-.56,0c-.15-.14-.3-.29-.44-.44A11.23,11.23,0,0,1,9.76,16H13V14H9.19a10.62,10.62,0,0,1,0-4h5.62A10.2,10.2,0,0,1,15,12c0,.34,0,.67-.05,1h2c0-.33,0-.67,0-1a12.17,12.17,0,0,0-.16-2h2.91a8.2,8.2,0,0,1,.19,3h2c0-.33.05-.66.05-1A10,10,0,0,0,12,2ZM4.25,14a8.13,8.13,0,0,1,0-4H7.16a12.58,12.58,0,0,0,0,4Zm5.18,5.57A8,8,0,0,1,5.08,16H7.64A13,13,0,0,0,9.43,19.57ZM7.64,8H5.08A8,8,0,0,1,9.43,4.43,13,13,0,0,0,7.64,8ZM9.76,8A11.23,11.23,0,0,1,12,4.45,11.23,11.23,0,0,1,14.24,8Zm6.6,0a13,13,0,0,0-1.79-3.57A8,8,0,0,1,18.92,8Zm2.81,9.76L22,20.59,20.59,22l-2.83-2.83-1.42,1.42-2.12-6.37,6.37,2.12Z"/></svg>