<svg id="Layer_1" data-name="Layer 1" xmlns="http://www.w3.org/2000/svg" viewBox="0 0 24 24"><title>Network Locked</title><path d="M21,17H20V16a2,2,0,0,0-4,0v1H15v5h6Zm-2,0H17V16a1,1,0,0,1,2,0Zm-7,5c.34,0,.67,0,1-.05V18.3a11.68,11.68,0,0,1-1,1.23A11,11,0,0,1,9.77,16H13V14H9.2a10.1,10.1,0,0,1,0-4h5.6a10.28,10.28,0,0,1,.2,2h2a13.27,13.27,0,0,0-.17-2h2.91A8.24,8.24,0,0,1,20,12h2A10,10,0,1,0,12,22ZM9.44,19.57A8,8,0,0,1,5.08,16H7.63A13.34,13.34,0,0,0,9.44,19.57ZM18.92,8H16.37a13.34,13.34,0,0,0-1.81-3.57A8,8,0,0,1,18.92,8ZM12,4.47A11,11,0,0,1,14.23,8H9.77A11,11,0,0,1,12,4.47Zm-2.56,0A13.34,13.34,0,0,0,7.63,8H5.08A8,8,0,0,1,9.44,4.43ZM4,12a8.24,8.24,0,0,1,.26-2H7.17A13.27,13.27,0,0,0,7,12a13.27,13.27,0,0,0,.17,2H4.26A8.24,8.24,0,0,1,4,12Z"/></svg>