<svg id="Layer_1" data-name="Layer 1" xmlns="http://www.w3.org/2000/svg" viewBox="0 0 24 24"><title>Phone Missed</title><path d="M17.74,13.47A12.55,12.55,0,0,0,12,12a12.55,12.55,0,0,0-5.74,1.47,11.76,11.76,0,0,0-4,3.44l-.57.75,4,3.34,3.57-3.53-.52-3A10.13,10.13,0,0,1,12,13.92a10.13,10.13,0,0,1,3.27.57l-.52,3L18.32,21l4-3.34-.57-.75A11.76,11.76,0,0,0,17.74,13.47ZM5.9,18.35,4.47,17.3a9.69,9.69,0,0,1,2.38-2l.27,1.58Zm12.2,0-1.22-1.42.27-1.58a9.69,9.69,0,0,1,2.38,2ZM11,5H8.92l3.37,3.17L17.59,3,19,4.41,12.29,11,7,6V9H5V3h6Z"/></svg>