<svg id="Layer_1" data-name="Layer 1" xmlns="http://www.w3.org/2000/svg" viewBox="0 0 24 24"><title>Phone In Talk</title><path d="M11.57,20.55A14.79,14.79,0,0,0,18,22h1V16.22l-5.31-1.33-2.91,2.92a13,13,0,0,1-5.24-7.09l.06.08L10,7.5V2H3.84l-.22.71A15.09,15.09,0,0,0,3,7a15.61,15.61,0,0,0,.15,2.14A15,15,0,0,0,11.57,20.55Zm2.74-3.44,2.69.67V20a12.5,12.5,0,0,1-4.41-1.14ZM5.35,4H8V6.5L5.11,8.67A13.51,13.51,0,0,1,5,7,13,13,0,0,1,5.35,4ZM21,13H19a7,7,0,0,0-1-3.63A6.84,6.84,0,0,0,15.66,7,7.06,7.06,0,0,0,12,6V4a9.09,9.09,0,0,1,4.67,1.3A9.05,9.05,0,0,1,21,13Zm-6,0h0a3,3,0,0,0-3-3V8a5,5,0,0,1,5,5Z"/></svg>