<svg id="Layer_1" data-name="Layer 1" xmlns="http://www.w3.org/2000/svg" viewBox="0 0 24 24"><title>Phone Bluetooth Speaker</title><path d="M11.57,20.55A14.79,14.79,0,0,0,18,22h1V16.22l-5.31-1.33-2.91,2.92a12.92,12.92,0,0,1-5.24-7.09l.06.08L10,7.5V2H3.83l-.21.71A15.09,15.09,0,0,0,3,7a15.61,15.61,0,0,0,.15,2.14A15,15,0,0,0,11.57,20.55Zm2.74-3.44,2.69.67V20a12.5,12.5,0,0,1-4.41-1.14ZM5.35,4H8V6.5L5.11,8.67A13.51,13.51,0,0,1,5,7,13,13,0,0,1,5.35,4ZM17,3V6.63l-2.7-2-.6.8L17,7.87v.26L13.7,10.6l.6.8,2.7-2V13l4-3L18.33,8,21,6Zm1,2,1.33,1L18,7Zm0,6V9l1.33,1Z"/></svg>