<svg id="Layer_1" data-name="Layer 1" xmlns="http://www.w3.org/2000/svg" viewBox="0 0 24 24"><title>Sync Disabled</title><path d="M13,8V6.09A5.47,5.47,0,0,0,12,6a5.6,5.6,0,0,0-1.59.22L8.85,4.65A7.89,7.89,0,0,1,12,4a8.26,8.26,0,0,1,1,.06V2l4,3Zm6.35,7.16a8.06,8.06,0,0,0,.44-5L18,11.52c0,.15,0,.32,0,.48a5.6,5.6,0,0,1-.22,1.59ZM2,3.41l3.69,3.7a7.93,7.93,0,0,0-1.3,7.35l1.72-1.3A6.25,6.25,0,0,1,6,12,5.94,5.94,0,0,1,7.12,8.53l8.35,8.35A5.94,5.94,0,0,1,12,18V16L8,19l4,3V20a7.9,7.9,0,0,0,4.89-1.69L20.59,22,22,20.59,3.41,2Z"/></svg>