<svg id="Layer_1" data-name="Layer 1" xmlns="http://www.w3.org/2000/svg" viewBox="0 0 24 24"><title>Chat Settings</title><path d="M2,2V22l5.33-4H22V2ZM15.06,12.7l-.93-.31A3.23,3.23,0,0,1,13,13l-.19,1H11.2L11,13a3.32,3.32,0,0,1-1.14-.65L9,12.71l-.8-1.39.72-.64A3.08,3.08,0,0,1,8.8,10a2.93,2.93,0,0,1,.07-.67l-.73-.65.8-1.38.93.31A3.23,3.23,0,0,1,11,7l.19-1h1.6L13,7a3.32,3.32,0,0,1,1.14.65l.92-.32.8,1.39-.72.64a3.08,3.08,0,0,1,.07.68,2.93,2.93,0,0,1-.07.67l.73.65Zm-1.73-2.55A1.33,1.33,0,1,1,12,8.81,1.34,1.34,0,0,1,13.33,10.15Z"/></svg>