<svg id="Layer_1" data-name="Layer 1" xmlns="http://www.w3.org/2000/svg" viewBox="0 0 24 24"><title>Dialer Sip</title><path d="M13.69,14.89,19,16.22V22H18a14.79,14.79,0,0,1-6.43-1.45A15,15,0,0,1,3.15,9.14,15.61,15.61,0,0,1,3,7a15.09,15.09,0,0,1,.62-4.29L3.83,2H10V7.5L5.57,10.83l0,.17h0a13,13,0,0,0,5.16,6.81ZM17,4H16V9h1Zm4,1.5A1.5,1.5,0,0,1,19.5,7H19V9H18V4h1.5A1.5,1.5,0,0,1,21,5.5Zm-1,0a.5.5,0,0,0-.5-.5H19V6h.5A.5.5,0,0,0,20,5.5ZM15,8V7a1,1,0,0,0-1-1H13V5h2V4H13a1,1,0,0,0-1,1V6a1,1,0,0,0,1,1h1V8H12V9h2A1,1,0,0,0,15,8Z"/></svg>