<svg id="Layer_1" data-name="Layer 1" xmlns="http://www.w3.org/2000/svg" viewBox="0 0 24 24"><title>Disconnect</title><path d="M8.87,4.64,7.36,3.13A10,10,0,0,1,22,12a9.82,9.82,0,0,1-1.14,4.63l-1.5-1.5A7.93,7.93,0,0,0,20,12a8,8,0,0,0-8-8A7.93,7.93,0,0,0,8.87,4.64ZM12,6a5.76,5.76,0,0,0-1.56.21L12.24,8A4,4,0,0,1,16,11.76l1.8,1.8A5.76,5.76,0,0,0,18,12,6,6,0,0,0,12,6ZM2,3.41,4.26,5.67A10,10,0,0,0,5.87,19.89l1.22-1.58A8,8,0,0,1,5.69,7.1L7.11,8.53A6,6,0,0,0,6,12a6,6,0,0,0,2.31,4.74l1.24-1.58A4,4,0,0,1,8,12a4,4,0,0,1,.56-2l1.51,1.51A2.09,2.09,0,0,0,10,12a2,2,0,0,0,.78,1.58A2,2,0,0,0,12,14a2.09,2.09,0,0,0,.5-.08L20.59,22,22,20.59,3.41,2Z"/></svg>