<svg id="Layer_1" data-name="Layer 1" xmlns="http://www.w3.org/2000/svg" viewBox="0 0 24 24"><title>Phone Link Setup</title><path d="M20,2V22H8V18h2v1h8V5H10V6H8V2ZM8.66,16H7.06l-.19-1a3.23,3.23,0,0,1-1.14-.65l-.92.32L4,13.32l.72-.64A3.08,3.08,0,0,1,4.66,12a2.93,2.93,0,0,1,.07-.67L4,10.68,4.8,9.3l.93.31A3.23,3.23,0,0,1,6.87,9l.19-1h1.6l.19,1A3.32,3.32,0,0,1,10,9.61l.92-.32.8,1.39-.73.64a2.58,2.58,0,0,1,.07.68,2.46,2.46,0,0,1-.07.67l.74.65-.8,1.38L10,14.39A3.23,3.23,0,0,1,8.85,15Zm-.8-2.67A1.33,1.33,0,1,0,6.53,12,1.34,1.34,0,0,0,7.86,13.33Z"/></svg>