<svg id="Layer_1" data-name="Layer 1" xmlns="http://www.w3.org/2000/svg" viewBox="0 0 24 24"><title>List Numbered RTL</title><path d="M17,7H2V5H17Zm0,4H2v2H17Zm0,6H2v2H17Zm4-8.71V4H19.94L19,4.66v1l.77-.48V8.29Zm.16,4.21A2.09,2.09,0,0,0,22,11c0-.8-.56-1.36-1.61-1.36a1.54,1.54,0,0,0-1.72,1.62h1.11c.06-.51.25-.69.55-.69a.43.43,0,0,1,.46.48c0,.36-.28.72-.71,1.18l-1.5,1.59V14H22v-.92H20.56Zm0,5.18a.91.91,0,0,0,.72-.92c0-.72-.6-1.18-1.61-1.18A1.49,1.49,0,0,0,18.59,17h1.09c.05-.36.23-.55.57-.55s.49.17.49.43-.19.47-.57.47h-.32v.76h.34q.57,0,.57.51c0,.3-.18.48-.57.48s-.58-.23-.62-.59h-1.1c.05.93.6,1.48,1.79,1.48S22,19.47,22,18.65A1,1,0,0,0,21.17,17.68Z"/></svg>