<svg id="Layer_1" data-name="Layer 1" xmlns="http://www.w3.org/2000/svg" viewBox="0 0 24 24"><title>Cell Wifi</title><path d="M4,22H22V4Zm16-2H18V10.83l2-2ZM5.69,5A7.73,7.73,0,0,0,3.42,6.87L2,5.45A5.92,5.92,0,0,1,2.41,5,10,10,0,0,1,16.69,5a5.92,5.92,0,0,1,.41.45L15.68,6.87A7.73,7.73,0,0,0,13.41,5,7.95,7.95,0,0,0,5.69,5Zm5.62,3.41a4,4,0,0,0-3.52,0A3.86,3.86,0,0,0,6.27,9.72L4.84,8.29a6,6,0,0,1,9.42,0L12.83,9.72A3.86,3.86,0,0,0,11.31,8.41Zm.06,2.77L9.55,13,7.73,11.18A2,2,0,0,1,9.39,10h.32A2,2,0,0,1,11.37,11.18Z"/></svg>