<svg id="Layer_1" data-name="Layer 1" xmlns="http://www.w3.org/2000/svg" viewBox="0 0 24 24"><title>Chat Settings</title><path d="M2,22V2H22V18H7.33ZM4,4V18l2.67-2H20V4Zm11.13,6.67A2.93,2.93,0,0,0,15.2,10a3.08,3.08,0,0,0-.07-.68l.72-.64-.8-1.39-.92.32A3.32,3.32,0,0,0,13,7L12.8,6H11.2L11,7a3.23,3.23,0,0,0-1.14.65L8.94,7.3l-.8,1.38.73.65A2.93,2.93,0,0,0,8.8,10a3.08,3.08,0,0,0,.07.68l-.72.64L9,12.71l.92-.32A3.32,3.32,0,0,0,11,13l.19,1h1.6L13,13a3.23,3.23,0,0,0,1.14-.65l.93.31.8-1.38ZM12,11.48a1.34,1.34,0,1,1,1.33-1.33A1.34,1.34,0,0,1,12,11.48Z"/></svg>