<svg id="Layer_1" data-name="Layer 1" xmlns="http://www.w3.org/2000/svg" viewBox="0 0 24 24"><title>Contact Phone</title><path d="M2,3V21H22V3ZM20,19H4V5H20ZM10,12A3,3,0,1,0,7,9,3,3,0,0,0,10,12Zm0-4A1,1,0,1,1,9,9,1,1,0,0,1,10,8Zm5,7.66-.2-.27a6,6,0,0,0-9.6,0l-.2.28V18H15ZM7.36,16a4.09,4.09,0,0,1,5.28,0Zm8.31-2a5.29,5.29,0,0,1-.08-5,6.31,6.31,0,0,1,.4-.65,5.58,5.58,0,0,1,1.06-1.11l.3-.23L19,8.34l-.92,1.78-1.89.05a4.32,4.32,0,0,0,0,2.66l1.31-.21L19,14.34,17.61,16l-.39-.28A5.27,5.27,0,0,1,15.67,14Z"/></svg>