<svg id="Layer_1" data-name="Layer 1" xmlns="http://www.w3.org/2000/svg" viewBox="0 0 24 24"><title>Device Hub</title><path d="M22,10a2,2,0,0,1-3.47,1.35L15,12.69a2.66,2.66,0,0,1-.51,2l2.91,3.4A1.9,1.9,0,0,1,18,18a2,2,0,1,1-2,2,2,2,0,0,1,.23-.91l-2.92-3.41a2.84,2.84,0,0,1-2.62,0L7.77,19.09A2,2,0,0,1,8,20a2,2,0,1,1-2-2,1.9,1.9,0,0,1,.63.11l2.91-3.4a2.66,2.66,0,0,1-.51-2L5.47,11.35A2,2,0,1,1,6,10l3.56,1.33a3,3,0,0,1,1.7-1.17V5.85a2,2,0,1,1,1.5,0v4.26a3,3,0,0,1,1.7,1.17L18,10A2,2,0,0,1,22,10Z"/></svg>