<svg id="Layer_1" data-name="Layer 1" xmlns="http://www.w3.org/2000/svg" viewBox="0 0 24 24"><title>Dial pad</title><path d="M7,6A2,2,0,1,1,9,4,2,2,0,0,1,7,6ZM7,4Zm5,2a2,2,0,1,1,2-2A2,2,0,0,1,12,6Zm0-2Zm5,2a2,2,0,1,1,2-2A2,2,0,0,1,17,6Zm0-2ZM7,11A2,2,0,1,1,9,9,2,2,0,0,1,7,11ZM7,9Zm5,2a2,2,0,1,1,2-2A2,2,0,0,1,12,11Zm0-2Zm5,2a2,2,0,1,1,2-2A2,2,0,0,1,17,11Zm0-2ZM7,16a2,2,0,1,1,2-2A2,2,0,0,1,7,16Zm0-2Zm5,2a2,2,0,1,1,2-2A2,2,0,0,1,12,16Zm0-2Zm0,7a2,2,0,1,1,2-2A2,2,0,0,1,12,21Zm0-2Zm5-3a2,2,0,1,1,2-2A2,2,0,0,1,17,16Zm0-2Z"/></svg>