<svg id="Layer_1" data-name="Layer 1" xmlns="http://www.w3.org/2000/svg" viewBox="0 0 24 24"><title>GPS Off</title><path d="M22,11v2H19.94a8.45,8.45,0,0,1-.58,2.14l-1.57-1.57A5.83,5.83,0,0,0,18,12a6,6,0,0,0-6-6,5.83,5.83,0,0,0-1.57.21L8.86,4.65A8.07,8.07,0,0,1,11,4.06V2h2V4.06A8,8,0,0,1,19.94,11ZM3.41,2,22,20.59,20.59,22,16.9,18.31A8,8,0,0,1,13,19.94V22H11V19.94A8,8,0,0,1,4.06,13H2V11H4.06A7.88,7.88,0,0,1,5.69,7.11L2,3.41ZM15.47,16.88,7.11,8.53A6,6,0,0,0,12,18,5.94,5.94,0,0,0,15.47,16.88Z"/></svg>