<svg id="Layer_1" data-name="Layer 1" xmlns="http://www.w3.org/2000/svg" viewBox="0 0 24 24"><title>Location Disabled</title><path d="M9.09,4.89,7.67,3.47A6.62,6.62,0,0,1,11.18,2a8.42,8.42,0,0,1,1.64,0c5.39.55,8,7,4.82,11.39L16.19,12a5.4,5.4,0,0,0,.32-5.09A4.73,4.73,0,0,0,12.62,4c-.2,0-.41,0-.62,0s-.42,0-.62,0A4.7,4.7,0,0,0,9.09,4.89Zm2.23,2.23,2.56,2.55A1.85,1.85,0,0,0,14,9a2,2,0,0,0-2-2A1.91,1.91,0,0,0,11.32,7.12ZM20.59,22l-5.18-5.18L12,22,6.37,13.44a7.41,7.41,0,0,1-1-6.64L2,3.41,3.41,2,22,20.59ZM14,15.38,7.05,8.47A5.37,5.37,0,0,0,8,12.27l0,0,0,0,4,6Z"/></svg>