<svg id="Layer_1" data-name="Layer 1" xmlns="http://www.w3.org/2000/svg" viewBox="0 0 24 24"><title>Offline</title><path d="M16,11.8a4,4,0,0,0-1.16-2.64l1.42-1.4A6,6,0,0,1,18,12a5.6,5.6,0,0,1-.22,1.59Zm3.36,3.36,1.5,1.5A10,10,0,0,0,19.07,4.93L17.66,6.35a8,8,0,0,1,1.69,8.81ZM2,3.41,4.26,5.67a10,10,0,0,0,.67,13.4l1.41-1.42A8,8,0,0,1,5.69,7.1L7.11,8.53a6,6,0,0,0,.64,7.71l1.42-1.4A4,4,0,0,1,8.56,10l1.51,1.51A2.09,2.09,0,0,0,10,12a2,2,0,0,0,2,2,2.09,2.09,0,0,0,.51-.07L20.59,22,22,20.59,3.41,2Z"/></svg>