<svg id="Layer_1" data-name="Layer 1" xmlns="http://www.w3.org/2000/svg" viewBox="0 0 24 24"><title>Ring Volume</title><path d="M21.85,17.37a12.06,12.06,0,0,0-2.55-2.44A11.65,11.65,0,0,0,17.81,14a12.19,12.19,0,0,0-11.55.17,12,12,0,0,0-4,3.58l-.57.78L6.15,22l2.91-2.91V15.13a10.15,10.15,0,0,1,6-.08v4.13L19.29,22l3-4Zm-14.79.86L6,19.32l-1.5-1.16A10.07,10.07,0,0,1,7.06,16Zm11.77,1.06-1.77-1.18V15.87a11.63,11.63,0,0,1,1.08.68A10,10,0,0,1,19.78,18Zm-3.06-8.84L15,8.59l4.64-1.86.75,1.86Zm-8.17,0L3,8.59l.75-1.86L8.35,8.59ZM12.68,7h-2V2h2Z"/></svg>