<svg id="Layer_1" data-name="Layer 1" xmlns="http://www.w3.org/2000/svg" viewBox="0 0 24 24"><title>World Wide Web</title><path d="M5.16,8H2.91A10,10,0,0,1,21.23,8H19a8,8,0,0,0-4.34-3.57A13.17,13.17,0,0,1,16.44,8H14.31a11,11,0,0,0-2.24-3.54A11,11,0,0,0,9.83,8H7.7A13.17,13.17,0,0,1,9.5,4.43,8,8,0,0,0,5.16,8Zm9.48,11.57A13.17,13.17,0,0,0,16.44,16H14.31a11,11,0,0,1-2.24,3.54A11,11,0,0,1,9.83,16H7.7a13.17,13.17,0,0,0,1.8,3.57A8,8,0,0,1,5.16,16H2.92a10,10,0,0,0,18.31,0H19A8,8,0,0,1,14.64,19.57ZM4.65,14l.49-2.45L5.63,14h1l1.6-4H7.2l-.9,2.25L5.85,10H4.43L4,12.25,3.08,10H2l1.6,4Zm8.58-1.75L12.78,10H11.36l-.45,2.25L10,10H8.93l1.6,4h1.05l.49-2.45L12.56,14h1l1.6-4H14.13Zm6.79,0L19.57,10H18.15l-.45,2.25L16.8,10H15.72l1.6,4h1.05l.49-2.45L19.35,14h1L22,10H20.92Z"/></svg>