<svg id="Layer_1" data-name="Layer 1" xmlns="http://www.w3.org/2000/svg" viewBox="0 0 24 24"><title>Cloud Circle</title><path d="M12,2A10,10,0,1,0,22,12,10,10,0,0,0,12,2Zm0,18a8,8,0,1,1,8-8A8,8,0,0,1,12,20ZM15.9,9.09a4,4,0,0,0-7.8,0,3.46,3.46,0,0,0-2.47,2.07A3.51,3.51,0,0,0,8.88,16h6.24a3.51,3.51,0,0,0,3.25-4.84A3.46,3.46,0,0,0,15.9,9.09Zm.46,4.26a1.5,1.5,0,0,1-1.24.65H8.88a1.5,1.5,0,0,1-1.24-.65A1.49,1.49,0,0,1,9,11h1V10a2,2,0,0,1,4,0l.06,1h1a1.54,1.54,0,0,1,1.45.88A1.57,1.57,0,0,1,16.36,13.35Z"/></svg>