<svg id="Layer_1" data-name="Layer 1" xmlns="http://www.w3.org/2000/svg" viewBox="0 0 24 24"><title>List Numbered</title><path d="M7,5H22V7H7Zm0,8H22V11H7Zm0,6H22V17H7ZM5,8.29V4H3.94L3,4.66v1l.77-.48V8.29Zm.45,4.79H4l.6-.58A2.09,2.09,0,0,0,5.42,11c0-.8-.56-1.36-1.61-1.36a1.55,1.55,0,0,0-1.73,1.62H3.2c0-.51.25-.69.55-.69a.43.43,0,0,1,.46.48c0,.36-.28.72-.71,1.18L2,13.83V14H5.45ZM3.79,20c1.13,0,1.74-.53,1.74-1.35a1,1,0,0,0-.84-1,.91.91,0,0,0,.73-.92c0-.72-.61-1.18-1.62-1.18A1.49,1.49,0,0,0,2.12,17H3.21a.53.53,0,0,1,.57-.55c.32,0,.49.17.49.43s-.19.47-.57.47H3.38v.76h.34q.57,0,.57.51c0,.3-.19.48-.57.48a.57.57,0,0,1-.63-.59H2C2,19.45,2.59,20,3.79,20Z"/></svg>