<svg id="Layer_1" data-name="Layer 1" xmlns="http://www.w3.org/2000/svg" viewBox="0 0 24 24"><title>Beach Access</title><path d="M11,22V12H9.37a4.76,4.76,0,0,1-.21-1.35A5,5,0,0,1,12,6.16a5,5,0,0,1,2.82,4.49A4.76,4.76,0,0,1,14.57,12H13V22ZM7.16,10.65a5.63,5.63,0,0,1,0-.71,5.46,5.46,0,0,1,.1-.69c0-.23.1-.45.17-.67s.15-.44.24-.65.19-.41.3-.61a5.08,5.08,0,0,1,.35-.59,5.47,5.47,0,0,1,.41-.54,5.57,5.57,0,0,1,.46-.51c.16-.16.33-.31.51-.46a5.66,5.66,0,0,1,.56-.4c.19-.13.39-.25.59-.36l.64-.29L12,4a6.67,6.67,0,0,1,.74.29,6.25,6.25,0,0,1,.63.33c.2.11.39.24.58.37s.36.28.54.44.33.31.49.48.3.34.43.52.27.38.39.57.23.4.33.6.19.42.27.64.14.44.2.66a5.63,5.63,0,0,1,.14.69,5.53,5.53,0,0,1,.07.7c0,.12,0,.23,0,.35A7.54,7.54,0,0,1,16.64,12H21V11A9,9,0,0,0,3,11v1H7.3A6.72,6.72,0,0,1,7.16,10.65Z"/></svg>