<svg id="Layer_1" data-name="Layer 1" xmlns="http://www.w3.org/2000/svg" viewBox="0 0 24 24"><title>Hot Tub</title><path d="M20,10H4V8H2V21H22V8H20ZM7,17a1,1,0,1,1,1-1A1,1,0,0,1,7,17Zm3.5-2a.5.5,0,1,1,.5-.5A.5.5,0,0,1,10.5,15ZM14,17a1,1,0,1,1,1-1A1,1,0,0,1,14,17Zm3.5-1a.5.5,0,1,1,.5-.5A.5.5,0,0,1,17.5,16ZM11.87,7a.94.94,0,0,0,0-1.3,1.91,1.91,0,0,1-.57-1.35,1.78,1.78,0,0,1,.3-1A1.49,1.49,0,0,1,11.87,3H13a1.62,1.62,0,0,1-.17.35,1.49,1.49,0,0,1-.27.35.92.92,0,0,0,0,1.3,1.9,1.9,0,0,1,.56,1.35,1.85,1.85,0,0,1-.29,1,1.49,1.49,0,0,1-.27.35l-.3.3h-1.4Zm-3,0a.94.94,0,0,0,0-1.3A1.91,1.91,0,0,1,8.3,4.35a1.78,1.78,0,0,1,.3-1A1.49,1.49,0,0,1,8.87,3H10a1.62,1.62,0,0,1-.17.35,1.49,1.49,0,0,1-.27.35.92.92,0,0,0,0,1.3,1.9,1.9,0,0,1,.56,1.35,1.85,1.85,0,0,1-.29,1,1.49,1.49,0,0,1-.27.35l-.3.3H7.87Zm6,0a.94.94,0,0,0,0-1.3,1.91,1.91,0,0,1-.57-1.35,1.78,1.78,0,0,1,.3-1A1.49,1.49,0,0,1,14.87,3H16a1.62,1.62,0,0,1-.17.35,1.49,1.49,0,0,1-.27.35.92.92,0,0,0,0,1.3,1.9,1.9,0,0,1,.56,1.35,1.85,1.85,0,0,1-.29,1,1.49,1.49,0,0,1-.27.35l-.3.3h-1.4Z"/></svg>