<svg id="Layer_1" data-name="Layer 1" xmlns="http://www.w3.org/2000/svg" viewBox="0 0 24 24"><title>Location Pin</title><path d="M12,2A6,6,0,0,0,6,8c0,4.36,5.08,9.49,5.29,9.71l.71.7.71-.7C12.92,17.49,18,12.36,18,8A6,6,0,0,0,12,2Zm0,8a2,2,0,1,1,2-2A2,2,0,0,1,12,10Zm10,8c0,2.75-5.18,4-10,4S2,20.75,2,18c0-1.63,1.83-2.74,4.32-3.36.4.64.82,1.24,1.23,1.78C5.2,16.9,4,17.66,4,18s2.31,1.76,6.73,2c.41,0,.83,0,1.27,0s.86,0,1.27,0c4.42-.21,6.73-1.5,6.73-2s-1.2-1.1-3.55-1.58c.41-.54.83-1.14,1.23-1.78C20.17,15.26,22,16.37,22,18Z"/></svg>