<svg id="Layer_1" data-name="Layer 1" xmlns="http://www.w3.org/2000/svg" viewBox="0 0 24 24"><title>Local Florist</title><path d="M3,12a15.92,15.92,0,0,0,2.51,2.36C4.78,15.74,5.05,19,5.05,19s.6.05,1.39.05a7.78,7.78,0,0,0,3.2-.51A15.92,15.92,0,0,0,12,21a15.92,15.92,0,0,0,2.36-2.51,7.78,7.78,0,0,0,3.2.51C18.35,19,19,19,19,19s.27-3.21-.46-4.59A15.92,15.92,0,0,0,21,12a15.92,15.92,0,0,0-2.51-2.36c.73-1.38.46-4.59.46-4.59s-.6,0-1.39,0a7.78,7.78,0,0,0-3.2.51A15.92,15.92,0,0,0,12,3,15.92,15.92,0,0,0,9.64,5.51,7.78,7.78,0,0,0,6.44,5c-.79,0-1.39,0-1.39,0s-.27,3.21.46,4.59A15.92,15.92,0,0,0,3,12Zm10,0a1,1,0,1,1-1-1A1,1,0,0,1,13,12ZM17,13A7,7,0,0,1,15.77,12,7,7,0,0,1,17,11.05a7,7,0,0,1,1.23.95A7,7,0,0,1,17,13ZM7,11.05A7,7,0,0,1,8.23,12,7,7,0,0,1,7,13,7,7,0,0,1,5.77,12,7,7,0,0,1,7,11.05Zm1.55,5.74A6.43,6.43,0,0,1,7,17a7,7,0,0,1,.2-1.54,6.43,6.43,0,0,1,1.54-.2A7,7,0,0,1,8.55,16.79ZM12,18.23A7,7,0,0,1,11.05,17,7,7,0,0,1,12,15.77,7,7,0,0,1,13,17,7,7,0,0,1,12,18.23Zm3.45-1.44a7,7,0,0,1-.2-1.54,6.43,6.43,0,0,1,1.54.2A7,7,0,0,1,17,17,6.43,6.43,0,0,1,15.45,16.79Zm0-9.58A6.43,6.43,0,0,1,17,7a7,7,0,0,1-.2,1.54,6.43,6.43,0,0,1-1.54.2A7,7,0,0,1,15.45,7.21ZM12,5.77A7,7,0,0,1,13,7,7,7,0,0,1,12,8.23,7,7,0,0,1,11.05,7,7,7,0,0,1,12,5.77ZM8.55,7.21a7,7,0,0,1,.2,1.54,6.43,6.43,0,0,1-1.54-.2A7,7,0,0,1,7,7,6.43,6.43,0,0,1,8.55,7.21Z"/></svg>