<svg id="Layer_1" data-name="Layer 1" xmlns="http://www.w3.org/2000/svg" viewBox="0 0 24 24"><title>Pool</title><path d="M21.79,17.67l.21-.21v2.37A2.84,2.84,0,0,1,21,20a3.11,3.11,0,0,1-2.21-.91,1.11,1.11,0,0,0-1.58,0,3.14,3.14,0,0,1-4.42,0,1.11,1.11,0,0,0-1.58,0,3.14,3.14,0,0,1-4.42,0,1.11,1.11,0,0,0-1.58,0A3.13,3.13,0,0,1,2,19.83V17.46l.21.21a1.13,1.13,0,0,0,1.58,0,3.14,3.14,0,0,1,4.42,0,1.11,1.11,0,0,0,1.58,0,3.14,3.14,0,0,1,4.42,0,1.11,1.11,0,0,0,1.58,0,3.14,3.14,0,0,1,4.42,0A1.13,1.13,0,0,0,21.79,17.67Zm-1.58-4a3.14,3.14,0,0,0-4.42,0,1.11,1.11,0,0,1-1.58,0,3.14,3.14,0,0,0-4.42,0,1.11,1.11,0,0,1-1.58,0,3.14,3.14,0,0,0-4.42,0,1.13,1.13,0,0,1-1.58,0L2,13.46v2.37a3.13,3.13,0,0,0,3.21-.74,1.11,1.11,0,0,1,1.58,0,3.14,3.14,0,0,0,4.42,0,1.11,1.11,0,0,1,1.58,0,3.14,3.14,0,0,0,4.42,0,1.11,1.11,0,0,1,1.58,0A3.11,3.11,0,0,0,21,16a2.84,2.84,0,0,0,1-.17V13.46l-.21.21A1.13,1.13,0,0,1,20.21,13.67ZM18,6a2,2,0,1,0-2,2A2,2,0,0,0,18,6ZM9.41,4H6V6H8.59l1.5,1.5L6.74,10.85a3.09,3.09,0,0,1,1.47.82,1.11,1.11,0,0,0,1.58,0,3.14,3.14,0,0,1,4.42,0,1.11,1.11,0,0,0,1.58,0,3,3,0,0,1,.75-.55l-.27-.27-.36-.35L11.5,6.09Z"/></svg>