<svg id="Layer_1" data-name="Layer 1" xmlns="http://www.w3.org/2000/svg" viewBox="0 0 24 24"><title>Spa</title><path d="M20.82,9a11.62,11.62,0,0,0-5.16,1.09A12.25,12.25,0,0,0,12,5a12.25,12.25,0,0,0-3.66,5.05A11.62,11.62,0,0,0,3.18,9,10.83,10.83,0,0,0,2.05,9S1.5,14.08,4.22,16.8c1.92,1.92,5,2.2,6.66,2.2h2.24c1.66,0,4.74-.28,6.66-2.2C22.5,14.08,22,9,22,9A10.83,10.83,0,0,0,20.82,9ZM10,17a7.1,7.1,0,0,1-4.41-1.59A7.18,7.18,0,0,1,4,11a7.87,7.87,0,0,1,4,1.24,8.35,8.35,0,0,0,2,4.71Zm8.41-1.59A7.1,7.1,0,0,1,14,17v-.05a8.35,8.35,0,0,0,2-4.71A7.87,7.87,0,0,1,20,11,7.21,7.21,0,0,1,18.41,15.39Z"/></svg>