<svg id="Layer_1" data-name="Layer 1" xmlns="http://www.w3.org/2000/svg" viewBox="0 0 24 24"><title>Alarm Off</title><path d="M17.78,13.59A5.6,5.6,0,0,0,18,12a6,6,0,0,0-6-6,5.67,5.67,0,0,0-1.6.22L8.84,4.65A8,8,0,0,1,19.35,15.16ZM6.59,2l-.2.2L7.8,3.61l.2-.2ZM16,3.41,20.59,8,22,6.59,17.41,2ZM3.41,2,22,20.59,20.59,22,16.9,18.31l-.09.08a8,8,0,0,1-1.81,1h0a7.87,7.87,0,0,1-6,0H9L6.41,22,5,20.59l2.19-2.2h0A8,8,0,0,1,5.69,7.11L5,6.41,3.41,8,2,6.59,3.59,5,2,3.41ZM15.47,16.88,7.12,8.53A5.94,5.94,0,0,0,6,12a6,6,0,0,0,6,6A5.94,5.94,0,0,0,15.47,16.88Z"/></svg>