<svg id="Layer_1" data-name="Layer 1" xmlns="http://www.w3.org/2000/svg" viewBox="0 0 24 24"><title>All Out</title><path d="M13.54,17.79l1.57,1.58a8,8,0,0,1-6.22,0l1.57-1.58a5.75,5.75,0,0,0,3.08,0Zm5.83-2.67A8.12,8.12,0,0,0,20,12a7.89,7.89,0,0,0-.63-3.11l-1.58,1.57a5.75,5.75,0,0,1,0,3.08ZM15.12,4.63a8,8,0,0,0-6.24,0l1.58,1.58a5.75,5.75,0,0,1,3.08,0ZM4.63,8.89A7.89,7.89,0,0,0,4,12a8.12,8.12,0,0,0,.63,3.12l1.58-1.58a5.75,5.75,0,0,1,0-3.08Zm10.08,4.4-1.42,1.42,5.5,5.5L17,22h5V17l-1.79,1.79Zm-9.5,6.92,5.5-5.5L9.29,13.29l-5.5,5.5L2,17v5H7ZM18.79,3.79l-5.5,5.5,1.42,1.42,5.5-5.5L22,7V2H17Zm-9.5,6.92,1.42-1.42-5.5-5.5L7,2H2V7L3.79,5.21Z"/></svg>