<svg id="Layer_1" data-name="Layer 1" xmlns="http://www.w3.org/2000/svg" viewBox="0 0 24 24"><title>Birthday</title><path d="M11,5a6.64,6.64,0,0,1,1-2,6.64,6.64,0,0,1,1,2,1,1,0,0,1-2,0ZM7,6A1,1,0,0,0,8,5,6.64,6.64,0,0,0,7,3,6.64,6.64,0,0,0,6,5,1,1,0,0,0,7,6ZM18,9h4V21H2V9H6V7H8V9h3V7h2V9h3V7h2Zm2,10V15.68a5,5,0,0,1-5-.6,5.28,5.28,0,0,1-5.94,0,5,5,0,0,1-5,.6V19Zm0-8H4v2.32a3.07,3.07,0,0,0,4.12-.1L9,12.34l.71.71a3.25,3.25,0,0,0,4.58,0l.71-.71.88.88a3.07,3.07,0,0,0,4.12.1ZM17,6a1,1,0,0,0,1-1,6.64,6.64,0,0,0-1-2,6.64,6.64,0,0,0-1,2A1,1,0,0,0,17,6Z"/></svg>