<svg id="Layer_1" data-name="Layer 1" xmlns="http://www.w3.org/2000/svg" viewBox="0 0 24 24"><title>DNS</title><path d="M21.16,8H18.91a8,8,0,0,0-4.34-3.57A13.17,13.17,0,0,1,16.37,8H14.24A11,11,0,0,0,12,4.46,11,11,0,0,0,9.76,8H7.63a13.17,13.17,0,0,1,1.8-3.57A8,8,0,0,0,5.09,8H2.84A10,10,0,0,1,21.16,8Zm-2.25,8a8,8,0,0,1-4.34,3.57A13.17,13.17,0,0,0,16.37,16H14.24A11,11,0,0,1,12,19.54,11,11,0,0,1,9.76,16H7.63a13.17,13.17,0,0,0,1.8,3.57A8,8,0,0,1,5.09,16H2.85a10,10,0,0,0,18.31,0ZM7,15H4V9H7a1,1,0,0,1,1,1v4A1,1,0,0,1,7,15ZM5,14H7V10H5Zm7.94,1H14V9H13v3.88L11.06,9H10v6h1V11.12Zm5.31-1H16v1h2.25a1.75,1.75,0,0,0,0-3.5h-.5a.75.75,0,0,1,0-1.5H20V9H17.75a1.75,1.75,0,0,0,0,3.5h.5a.75.75,0,0,1,0,1.5Z"/></svg>