<svg id="Layer_1" data-name="Layer 1" xmlns="http://www.w3.org/2000/svg" viewBox="0 0 24 24"><title>In Progress</title><path d="M12,22a10.2,10.2,0,0,1-2.75-.38l.55-1.93A7.75,7.75,0,0,0,12,20,8,8,0,0,0,12,4a7.75,7.75,0,0,0-2.2.31L9.25,2.38A10.2,10.2,0,0,1,12,2a10,10,0,0,1,0,20ZM8.14,5l-1-1.75A10,10,0,0,0,3.25,7.16L5,8.13A8,8,0,0,1,8.14,5Zm-1,15.77,1-1.75A8,8,0,0,1,5,15.88l-1.75,1A10,10,0,0,0,7.18,20.76ZM4.31,14.22a8.1,8.1,0,0,1,0-4.44L2.39,9.23a10.07,10.07,0,0,0,0,5.55Zm13.4-5.37L16.29,7.44,10,13.73,7.71,11.44,6.29,12.85,10,16.56Z"/></svg>