<svg id="Layer_1" data-name="Layer 1" xmlns="http://www.w3.org/2000/svg" viewBox="0 0 24 24"><title>Language</title><path d="M12,22A10,10,0,1,0,2,12,10,10,0,0,0,12,22ZM5.08,16H7.63a13.34,13.34,0,0,0,1.81,3.57A8,8,0,0,1,5.08,16ZM4,12a8.24,8.24,0,0,1,.26-2H7.17A13.27,13.27,0,0,0,7,12a13.27,13.27,0,0,0,.17,2H4.26A8.24,8.24,0,0,1,4,12Zm8-7.53A11,11,0,0,1,14.23,8H9.77A11,11,0,0,1,12,4.47ZM14.8,10a10.1,10.1,0,0,1,0,4H9.2a10.1,10.1,0,0,1,0-4ZM20,12a8.24,8.24,0,0,1-.26,2H16.83A13.27,13.27,0,0,0,17,12a13.27,13.27,0,0,0-.17-2h2.91A8.24,8.24,0,0,1,20,12Zm-8,7.53A11,11,0,0,1,9.77,16h4.46A11,11,0,0,1,12,19.53Zm2.56,0A13.34,13.34,0,0,0,16.37,16h2.55A8,8,0,0,1,14.56,19.57ZM18.92,8H16.37a13.34,13.34,0,0,0-1.81-3.57A8,8,0,0,1,18.92,8ZM9.44,4.43A13.34,13.34,0,0,0,7.63,8H5.08A8,8,0,0,1,9.44,4.43Z"/></svg>