<svg id="Layer_1" data-name="Layer 1" xmlns="http://www.w3.org/2000/svg" viewBox="0 0 24 24"><title>Network</title><path d="M19.17,17.76,22,20.59,20.59,22l-2.83-2.83-1.42,1.42-2.12-6.37,6.37,2.12ZM13,13h2.42c0-.33.05-.67.05-1a12.46,12.46,0,0,0-.18-2H8.71a12.46,12.46,0,0,0-.18,2,12.46,12.46,0,0,0,.18,2H13Zm0,6.5V16.05H9.2A12.52,12.52,0,0,0,12,20.7,12.59,12.59,0,0,0,13,19.51ZM16.89,8h4.27A10,10,0,0,0,13.55,2,14.83,14.83,0,0,1,16.89,8ZM6.53,12a13.77,13.77,0,0,1,.16-2H2.2A10.4,10.4,0,0,0,2.2,14H6.69A13.77,13.77,0,0,1,6.53,12Zm10.78-2a13.77,13.77,0,0,1,.16,2c0,.34,0,.68,0,1H22c0-.33.05-.67.05-1a10.51,10.51,0,0,0-.2-2ZM9.2,8h5.6A12.72,12.72,0,0,0,12,3.29,12.72,12.72,0,0,0,9.2,8ZM10.45,22a14.83,14.83,0,0,1-3.34-5.95H2.84A10,10,0,0,0,10.45,22Zm0-20A10,10,0,0,0,2.84,8H7.11A14.83,14.83,0,0,1,10.45,2Z"/></svg>