<svg id="Layer_1" data-name="Layer 1" xmlns="http://www.w3.org/2000/svg" viewBox="0 0 24 24"><title>Network Locked</title><path d="M13,14H8.71a12.55,12.55,0,0,1-.18-2,12.55,12.55,0,0,1,.18-2h6.58a12.55,12.55,0,0,1,.18,2H13Zm0,5.48V16.05H9.2A12.72,12.72,0,0,0,12,20.71,12.72,12.72,0,0,0,13,19.51ZM21.16,8A10,10,0,0,0,13.55,2a14.83,14.83,0,0,1,3.34,6ZM6.69,14a13.77,13.77,0,0,1-.16-2,13.77,13.77,0,0,1,.16-2H2.2A10.4,10.4,0,0,0,2.2,14ZM21.8,10H17.31a13.77,13.77,0,0,1,.16,2H22A10.51,10.51,0,0,0,21.8,10ZM9.2,8h5.6A12.72,12.72,0,0,0,12,3.29,12.72,12.72,0,0,0,9.2,8ZM10.45,22a14.83,14.83,0,0,1-3.34-5.95H2.84A10,10,0,0,0,10.45,22ZM2.84,8H7.11A14.83,14.83,0,0,1,10.45,2,10,10,0,0,0,2.84,8ZM21,22H15V17h1V16a2,2,0,0,1,4,0v1h1Zm-2-6a1,1,0,0,0-2,0v1h2Z"/></svg>