<svg id="Layer_1" data-name="Layer 1" xmlns="http://www.w3.org/2000/svg" viewBox="0 0 24 24"><title>Blur Circular</title><path d="M12,3a9,9,0,1,0,9,9A9,9,0,0,0,12,3Zm0,16a7,7,0,1,1,7-7A7,7,0,0,1,12,19Zm-1-9a1,1,0,1,1-1-1A1,1,0,0,1,11,10Zm4,0a1,1,0,1,1-1-1A1,1,0,0,1,15,10Zm-4,4a1,1,0,1,1-1-1A1,1,0,0,1,11,14Zm4,0a1,1,0,1,1-1-1A1,1,0,0,1,15,14ZM8,10.5a.5.5,0,1,1-.5-.5A.5.5,0,0,1,8,10.5Zm0,3a.5.5,0,1,1-.5-.5A.5.5,0,0,1,8,13.5Zm3,3a.5.5,0,1,1-.5-.5A.5.5,0,0,1,11,16.5Zm0-9a.5.5,0,1,1-.5-.5A.5.5,0,0,1,11,7.5Zm2,0a.5.5,0,1,1,.5.5A.5.5,0,0,1,13,7.5Zm4,6a.5.5,0,1,1-.5-.5A.5.5,0,0,1,17,13.5Zm-3,3a.5.5,0,1,1-.5-.5A.5.5,0,0,1,14,16.5Zm3-6a.5.5,0,1,1-.5-.5A.5.5,0,0,1,17,10.5Z"/></svg>