<svg id="Layer_1" data-name="Layer 1" xmlns="http://www.w3.org/2000/svg" viewBox="0 0 24 24"><title>Brush</title><path d="M16.88,2.88,7.63,12.13c-.15,0-.3,0-.45,0a4.59,4.59,0,0,0-3.25,1.35,3.24,3.24,0,0,0-.45.6,2.74,2.74,0,0,0,.37,3.12A3,3,0,0,1,2,22H3.37a13.79,13.79,0,0,0,4.73-.76,6.7,6.7,0,0,0,2.34-1.3,4.55,4.55,0,0,0,1.32-3.46l9.36-9.36a3,3,0,0,0,0-4.24A3.08,3.08,0,0,0,16.88,2.88ZM11.2,11.39l1.41,1.41-1.39,1.39L9.81,12.78ZM9,18.53a5.26,5.26,0,0,1-1.61.83c-.3.11-.62.2-1,.29a4.17,4.17,0,0,0,0-.61,5,5,0,0,0-1.1-3.13c-.21-.26-.35-.62-.22-.84a1.77,1.77,0,0,1,.15-.22h0A2.61,2.61,0,0,1,9,18.53ZM19.71,5.71,14,11.39,12.61,10l5.68-5.68a1,1,0,0,1,1.42,0,1,1,0,0,1,0,1.42Z"/></svg>