<svg id="Layer_1" data-name="Layer 1" xmlns="http://www.w3.org/2000/svg" viewBox="0 0 24 24"><title>Close Up</title><path d="M20,4h-.37a20.85,20.85,0,0,0-4.42.43c-.29.07-.56.16-.82.25l-.18-.25A26,26,0,0,0,12,2,26,26,0,0,0,9.79,4.43l-.18.25c-.26-.09-.53-.18-.82-.25A20.85,20.85,0,0,0,4.37,4H4s-.14,5.35,1.38,6.86A3.82,3.82,0,0,0,8,12h3v4.47a4.18,4.18,0,0,0-.65-.82,7.15,7.15,0,0,0-5-1.65,9.3,9.3,0,0,0-1.28.08s-.6,4.11,1.57,6.27a7.15,7.15,0,0,0,5,1.65h2.72a7.15,7.15,0,0,0,5-1.65c2.17-2.16,1.57-6.27,1.57-6.27A9.3,9.3,0,0,0,18.64,14a7.15,7.15,0,0,0-5,1.65,4.18,4.18,0,0,0-.65.82V12h3a3.82,3.82,0,0,0,2.64-1.13C20.14,9.35,20,4,20,4ZM8.12,10a1.93,1.93,0,0,1-1.33-.55,8.41,8.41,0,0,1-.73-3.39,14.13,14.13,0,0,1,1.51.17c.36.06.65.12.91.18A3.72,3.72,0,0,0,8,8a4,4,0,0,0,.47,1.88l0,.06A1.76,1.76,0,0,1,8.12,10ZM7.06,18.94A4.65,4.65,0,0,1,6,16a4.67,4.67,0,0,1,2.91,1A4.65,4.65,0,0,1,10,20,4.67,4.67,0,0,1,7.06,18.94Zm8-1.88A4.67,4.67,0,0,1,18,16a4.69,4.69,0,0,1-1,2.92A4.67,4.67,0,0,1,14,20,4.69,4.69,0,0,1,15.06,17.06ZM13.47,9.35A2,2,0,0,1,10,8a2.81,2.81,0,0,1,.52-1.13,14.28,14.28,0,0,1,1.19-1.62L12,4.9l.3.35a15.62,15.62,0,0,1,1.19,1.62A2.9,2.9,0,0,1,14,8,2,2,0,0,1,13.47,9.35Zm3.74.1a2,2,0,0,1-.68.43,1.82,1.82,0,0,1-.65.12,1.76,1.76,0,0,1-.39-.06l0-.06A4,4,0,0,0,16,8a3.72,3.72,0,0,0-.48-1.59c.26-.06.55-.12.91-.18A14.34,14.34,0,0,1,18,6.06,8.19,8.19,0,0,1,17.21,9.45Z"/></svg>