<svg id="Layer_1" data-name="Layer 1" xmlns="http://www.w3.org/2000/svg" viewBox="0 0 24 24"><title>Color Lens</title><path d="M3.73,17.88A8.7,8.7,0,0,0,11.2,22h.32l.85,0a1.33,1.33,0,0,0,1.15-.73,1.37,1.37,0,0,0-.09-1.37A2.43,2.43,0,0,1,13,18a2.54,2.54,0,0,1,1.85-2,2.58,2.58,0,0,1,1.46.08,4.41,4.41,0,0,0,3.85-.38A3.8,3.8,0,0,0,22,12.84a10.74,10.74,0,0,0-1.3-6A8.84,8.84,0,0,0,16.57,3a10.18,10.18,0,0,0-12,2.34C1.5,8.75,1.19,13.67,3.73,17.88ZM6,6.69A7.9,7.9,0,0,1,12,4a9,9,0,0,1,3.74.83A6.93,6.93,0,0,1,18.9,7.78,8.75,8.75,0,0,1,20,12.67a1.8,1.8,0,0,1-.85,1.39,2.36,2.36,0,0,1-2.08.19,4.51,4.51,0,0,0-6,3.42,4.48,4.48,0,0,0,.2,2.33,6.71,6.71,0,0,1-5.83-3.16C2.92,12.67,4.08,8.86,6,6.69ZM16,10a1,1,0,1,1,1,1A1,1,0,0,1,16,10ZM13,7a1,1,0,1,1,1,1A1,1,0,0,1,13,7ZM9,7a1,1,0,1,1,1,1A1,1,0,0,1,9,7ZM6,10a1,1,0,1,1,1,1A1,1,0,0,1,6,10Z"/></svg>