<svg id="Layer_1" data-name="Layer 1" xmlns="http://www.w3.org/2000/svg" viewBox="0 0 24 24"><title>Filter</title><path d="M3,15.5a5.5,5.5,0,0,0,9,4.24A5.44,5.44,0,0,0,15.5,21a5.5,5.5,0,0,0,1.25-10.85A5.74,5.74,0,0,0,17,8.5a5.5,5.5,0,0,0-11,0,5.58,5.58,0,0,0,.37,1.95A5.43,5.43,0,0,0,3,15.5Zm16,0A3.5,3.5,0,0,1,15.5,19a3.44,3.44,0,0,1-2.21-.8,5.46,5.46,0,0,0,0-5.4,3.57,3.57,0,0,1,2.07-.8h.15A3.5,3.5,0,0,1,19,15.5ZM11.5,5A3.5,3.5,0,0,1,15,8.5a3.55,3.55,0,0,1-.37,1.57A5.44,5.44,0,0,0,11.29,12a3.47,3.47,0,0,1-2.67-1.48A3.42,3.42,0,0,1,8,8.5,3.5,3.5,0,0,1,11.5,5ZM7.42,12.18A5.48,5.48,0,0,0,11.5,14h.16A3.55,3.55,0,0,1,12,15.5,3.5,3.5,0,0,1,8.5,19,3.5,3.5,0,0,1,5,15.5,3.46,3.46,0,0,1,7.42,12.18Z"/></svg>