<svg id="Layer_1" data-name="Layer 1" xmlns="http://www.w3.org/2000/svg" viewBox="0 0 24 24"><title>Layer Mask</title><path d="M2,22H22V2H2ZM4,4H20V20H4Zm12,8,2-.06V12a6,6,0,0,1-.45,2.29l-1.85-.76A4,4,0,0,0,16,12ZM9.15,9.19,7.73,7.79A5.82,5.82,0,0,1,9.66,6.47l.78,1.84A4.05,4.05,0,0,0,9.15,9.19Zm-.84,4.36a4,4,0,0,0,.87,1.29l-1.4,1.42a5.85,5.85,0,0,1-1.31-1.93ZM8,12,6,12v0a6,6,0,0,1,.44-2.26l1.85.75A4.1,4.1,0,0,0,8,12Zm7.68-1.57a4,4,0,0,0-.88-1.29l1.4-1.43a6.2,6.2,0,0,1,1.32,1.93ZM12,16v2h0a5.94,5.94,0,0,1-2.28-.45l.76-1.85A3.92,3.92,0,0,0,12,16Zm2.83-1.17,1.42,1.41a5.91,5.91,0,0,1-1.94,1.3l-.77-1.85A4,4,0,0,0,14.83,14.83Zm-.59-8.4L13.5,8.29A4,4,0,0,0,12,8l0-2h0A6.07,6.07,0,0,1,14.24,6.43Z"/></svg>