<svg id="Layer_1" data-name="Layer 1" xmlns="http://www.w3.org/2000/svg" viewBox="0 0 24 24"><title>Timelapse</title><path d="M12,2A10,10,0,1,0,22,12,10,10,0,0,0,12,2ZM4,12a8,8,0,0,1,7-7.93v7.52L5.69,16.9A7.92,7.92,0,0,1,4,12Zm8,8a7.92,7.92,0,0,1-4.9-1.69l5.9-5.9V8.14a5.18,5.18,0,0,1,.56.17l.78-1.84A6.38,6.38,0,0,0,13,6.09v-2A8,8,0,0,1,12,20ZM14.7,15l1.36,1.47a6,6,0,0,1-2,1.23l-.68-1.88A3.93,3.93,0,0,0,14.7,15Zm1-4.4a4.21,4.21,0,0,0-.86-1.34L16.3,7.82a5.83,5.83,0,0,1,1.29,2ZM16,12.12l2,.05a6.25,6.25,0,0,1-.54,2.33l-1.82-.84A4,4,0,0,0,16,12.12Zm-5.77,3.47a4,4,0,0,0,1.54.4l-.11,2a6.17,6.17,0,0,1-2.31-.6Z"/></svg>