<svg id="Layer_1" data-name="Layer 1" xmlns="http://www.w3.org/2000/svg" viewBox="0 0 24 24"><title>Volume Off</title><path d="M14,2V9.79L10.1,5.9Zm2,5.54v4.25l1.78,1.78A5.46,5.46,0,0,0,18,12,6,6,0,0,0,16,7.54Zm2-3a9.12,9.12,0,0,0-2-1V5.68a6.77,6.77,0,0,1,2,1.43A7,7,0,0,1,20,12a6.77,6.77,0,0,1-.72,3.07l1.47,1.48A8.83,8.83,0,0,0,22,12,9,9,0,0,0,18,4.52ZM3.41,2,22,20.59,20.59,22,18,19.45l0,0a9.12,9.12,0,0,1-2,1V18.32a6.48,6.48,0,0,0,.57-.33L14,15.41V22L8,16H2V8H6.59L2,3.41ZM12,13.45,8.55,10H4v4H8.83l.58.59L12,17.17Z"/></svg>