<svg id="Layer_1" data-name="Layer 1" xmlns="http://www.w3.org/2000/svg" viewBox="0 0 24 24"><title>Casino</title><path d="M12,2A10,10,0,1,0,22,12,10,10,0,0,0,12,2Zm5.91,9a6,6,0,0,0-1-2.47L18.31,7.1A7.94,7.94,0,0,1,19.93,11ZM12,16a4,4,0,1,1,4-4A4,4,0,0,1,12,16Zm3.47-8.89a6,6,0,0,0-2.47-1v-2a7.94,7.94,0,0,1,3.9,1.62ZM11,6.09a6,6,0,0,0-2.47,1L7.1,5.69A7.94,7.94,0,0,1,11,4.07ZM8.53,16.89a6,6,0,0,0,2.47,1v2a7.94,7.94,0,0,1-3.9-1.62Zm4.47,1a6,6,0,0,0,2.47-1l1.43,1.42A7.94,7.94,0,0,1,13,19.93ZM5.69,7.1,7.11,8.53a6,6,0,0,0-1,2.47h-2A7.94,7.94,0,0,1,5.69,7.1ZM4.07,13h2a6,6,0,0,0,1,2.47L5.69,16.9A7.94,7.94,0,0,1,4.07,13Zm14.24,3.9-1.42-1.43a6,6,0,0,0,1-2.47h2A7.94,7.94,0,0,1,18.31,16.9Z"/></svg>