<svg id="Layer_1" data-name="Layer 1" xmlns="http://www.w3.org/2000/svg" viewBox="0 0 24 24"><title>Edit Location</title><path d="M12.82,2a8.42,8.42,0,0,0-1.64,0c-5.39.55-8,7-4.81,11.4L12,22l5.63-8.56C20.78,9,18.21,2.59,12.82,2ZM16,12.27l-4,6.09L8,12.27a5.41,5.41,0,0,1-.5-5.37A4.73,4.73,0,0,1,11.38,4c.2,0,.41,0,.62,0s.42,0,.62,0A4.73,4.73,0,0,1,16.51,6.9,5.41,5.41,0,0,1,16,12.27Zm-3.76-5,1.46,1.46L10.46,12H9V10.54Zm2.65-.22a.36.36,0,0,1,0,.49l-.71.7L12.74,6.81l.7-.71a.34.34,0,0,1,.24-.1.35.35,0,0,1,.25.1Z"/></svg>