<svg id="Layer_1" data-name="Layer 1" xmlns="http://www.w3.org/2000/svg" viewBox="0 0 24 24"><title>Location Off</title><path d="M16.18,12a5.39,5.39,0,0,0,.33-5.11A4.73,4.73,0,0,0,12.62,4c-.2,0-.41,0-.62,0s-.42,0-.62,0a4.7,4.7,0,0,0-2.31.88L7.65,3.49A6.59,6.59,0,0,1,11.18,2a8.42,8.42,0,0,1,1.64,0c5.39.55,8,7,4.81,11.4h0ZM11.3,7.13,13.87,9.7A1.82,1.82,0,0,0,14,9a2,2,0,0,0-2-2A1.82,1.82,0,0,0,11.3,7.13ZM3.41,2,22,20.59,20.59,22l-5.18-5.18L12,22,6.37,13.44a7.38,7.38,0,0,1-1-6.64L2,3.41ZM14,15.38,7.06,8.47A5.37,5.37,0,0,0,8,12.27l0,0,0,0,4,6Z"/></svg>