<svg id="Layer_1" data-name="Layer 1" xmlns="http://www.w3.org/2000/svg" viewBox="0 0 24 24"><title>Local Library</title><path d="M5.52,8A9,9,0,0,0,3,8.37v10A9,9,0,0,1,5.52,18,8.62,8.62,0,0,1,8,18.38,8.4,8.4,0,0,1,11,20a9.36,9.36,0,0,1,1,1,9.36,9.36,0,0,1,1-1,8.4,8.4,0,0,1,3-1.64A8.62,8.62,0,0,1,18.48,18a9,9,0,0,1,2.52.37v-10A9,9,0,0,0,18.48,8,8.53,8.53,0,0,0,12,11,8.53,8.53,0,0,0,5.52,8Zm11.06,2.28a6.72,6.72,0,0,1,1.9-.28L19,10v6l-.52,0a10.55,10.55,0,0,0-3.06.46A10,10,0,0,0,13,17.56V13A6.84,6.84,0,0,1,16.58,10.28ZM11,13v4.61a10,10,0,0,0-2.42-1.09A10.55,10.55,0,0,0,5.52,16L5,16V10l.52,0a6.72,6.72,0,0,1,1.9.28A6.84,6.84,0,0,1,11,13ZM15,6a3,3,0,1,0-3,3A3,3,0,0,0,15,6ZM11,6a1,1,0,1,1,1,1A1,1,0,0,1,11,6Z"/></svg>