<svg id="Layer_1" data-name="Layer 1" xmlns="http://www.w3.org/2000/svg" viewBox="0 0 24 24"><title>Local Pizza</title><path d="M12,21,20,4.69A20.24,20.24,0,0,0,12,3,19.46,19.46,0,0,0,4,4.69ZM12,5a18.21,18.21,0,0,1,5.28.79L12,16.46,6.76,5.78A17.4,17.4,0,0,1,12,5Zm.42,1.91A1.51,1.51,0,0,1,13.76,6a1.59,1.59,0,0,1,.59.12A1.5,1.5,0,0,1,13.74,9a1.59,1.59,0,0,1-.59-.12A1.5,1.5,0,0,1,12.37,6.91Zm-2,3A1.51,1.51,0,0,1,11.76,9a1.59,1.59,0,0,1,.59.12A1.5,1.5,0,0,1,11.74,12a1.59,1.59,0,0,1-.59-.12A1.5,1.5,0,0,1,10.37,9.91Z"/></svg>