<svg id="Layer_1" data-name="Layer 1" xmlns="http://www.w3.org/2000/svg" viewBox="0 0 24 24"><title>Local School</title><path d="M3,19.38A9,9,0,0,1,5.52,19,8.62,8.62,0,0,1,8,19.38,8.4,8.4,0,0,1,11,21a9.36,9.36,0,0,1,1,1,9.36,9.36,0,0,1,1-1,8.4,8.4,0,0,1,3-1.64A8.62,8.62,0,0,1,18.48,19a9,9,0,0,1,2.52.37v-10A9,9,0,0,0,18.48,9,8.53,8.53,0,0,0,12,12,8.53,8.53,0,0,0,5.52,9,9,9,0,0,0,3,9.37Zm13.58-8.1a6.72,6.72,0,0,1,1.9-.28L19,11v6l-.52,0a10.55,10.55,0,0,0-3.06.46A10,10,0,0,0,13,18.56V14A6.84,6.84,0,0,1,16.58,11.28ZM5,11l.52,0a6.72,6.72,0,0,1,1.9.28A6.84,6.84,0,0,1,11,14v4.61a10,10,0,0,0-2.42-1.09A10.55,10.55,0,0,0,5.52,17L5,17ZM3,5.6,12,2l9,3.6V7.76L12,4.15,3,7.76Z"/></svg>