<svg id="Layer_1" data-name="Layer 1" xmlns="http://www.w3.org/2000/svg" viewBox="0 0 24 24"><title>Smoke Free</title><path d="M16,11.86V11h-.86l-2-2H18v4.86Zm3,3,.14.14H22V9H19ZM21.17,4.35a1,1,0,0,1,.27-.65,1.49,1.49,0,0,0,.27-.35A1.62,1.62,0,0,0,21.88,3H20.74a1.49,1.49,0,0,0-.27.35,1.78,1.78,0,0,0-.3,1,1.91,1.91,0,0,0,.57,1.35.94.94,0,0,1,0,1.3l-1,1h1.4l.3-.3a1.49,1.49,0,0,0,.27-.35,1.85,1.85,0,0,0,.29-1A1.9,1.9,0,0,0,21.44,5,1,1,0,0,1,21.17,4.35ZM3.41,2,22,20.59,20.59,22l-7-7H2V9H7.59L2,3.41Zm8.18,11-2-2H9v2Z"/></svg>