<svg id="Layer_1" data-name="Layer 1" xmlns="http://www.w3.org/2000/svg" viewBox="0 0 24 24"><title>Select All</title><path d="M6,18H18V6H6ZM8,8h8v8H8ZM20,20h2v2H20Zm-3.55,0h1.77v2H16.45ZM9.33,20h1.78v2H9.33ZM5.78,20H7.56v2H5.78Zm7.11,0h1.78v2H12.89ZM2,20H4v2H2ZM2,5.78H4V7.56H2ZM2,16.44H4v1.78H2Zm0-3.55H4v1.78H2ZM2,9.33H4v1.78H2ZM2,2H4V4H2Zm9.11,0V4H9.33V2ZM7.55,4H5.78V2H7.55ZM18.22,4H16.44V2h1.78ZM14.67,2V4H12.89V2ZM20,2h2V4H20Zm0,10.89h2v1.78H20Zm0,3.55h2v1.78H20Zm0-7.11h2v1.78H20Zm0-3.55h2V7.56H20Z"/></svg>